SplineFontDB: 3.0
FontName: OSP-DIN
FullName: OSP-DIN
FamilyName: OSP-DIN
Weight: Medium
Copyright: Created by Harrisson, Ludi and Antoine Begon with FontForge 2.0 (http://fontforge.sf.net) - Brussels - 2011
Version: 001.000
ItalicAngle: 0
UnderlinePosition: -614
UnderlineWidth: 102
Ascent: 1638
Descent: 410
LayerCount: 2
Layer: 0 0 "Arri+AOgA-re"  1
Layer: 1 0 "Avant"  0
NeedsXUIDChange: 1
XUID: [1021 500 623151290 1313066]
FSType: 4
OS2Version: 0
OS2_WeightWidthSlopeOnly: 0
OS2_UseTypoMetrics: 1
CreationTime: 1232040855
ModificationTime: 1302693277
PfmFamily: 17
TTFWeight: 500
TTFWidth: 3
LineGap: 184
VLineGap: 0
Panose: 2 11 8 6 2 1 2 5 2 3
OS2TypoAscent: 0
OS2TypoAOffset: 1
OS2TypoDescent: 0
OS2TypoDOffset: 1
OS2TypoLinegap: 184
OS2WinAscent: 0
OS2WinAOffset: 1
OS2WinDescent: 4
OS2WinDOffset: 1
HheadAscent: 0
HheadAOffset: 1
HheadDescent: -4
HheadDOffset: 1
OS2SubXSize: 1331
OS2SubYSize: 1434
OS2SubXOff: 0
OS2SubYOff: 287
OS2SupXSize: 1331
OS2SupYSize: 1434
OS2SupXOff: 0
OS2SupYOff: 983
OS2StrikeYSize: 100
OS2StrikeYPos: 528
OS2Vendor: 'PfEd'
OS2CodePages: 00000001.00000000
OS2UnicodeRanges: 00000001.00000000.00000000.00000000
Lookup: 258 0 0 "'kern' Cr+AOkA-nage horizontal dans Latin lookup 0"  {"sous-table 'kern' Cr+AOkA-nage horizontal dans Latin lookup 0"  } ['kern' ('latn' <'dflt' > ) ]
MarkAttachClasses: 1
DEI: 91125
ShortTable: cvt  2
  33
  633
EndShort
ShortTable: maxp 16
  1
  0
  143
  78
  5
  54
  3
  2
  0
  1
  1
  0
  64
  0
  2
  1
EndShort
LangName: 1033 "" "" "" "FontForge 2.0 : OSP-DIN : 2-3-2011" "" "" "" "" "" "" "" "" "http://osp.constantvzw.org/foundry/" "SIL Open Font License, Version 1.1" "http://scripts.sil.org/cms/scripts/page.php?site_id+AD0A-nrsi&id+AD0A-OFL" 
GaspTable: 1 65535 2
Encoding: UnicodeBmp
Compacted: 1
UnicodeInterp: none
NameList: Adobe Glyph List
DisplaySize: -96
AntiAlias: 1
FitToEm: 1
WinInfo: 210 10 4
BeginPrivate: 0
EndPrivate
Grid
-2048 1020 m 0
 4096 1020 l 0
-2048 1224 m 4
 4096 1224 l 4
EndSplineSet

StartChar: exclam
Encoding: 33 33 4
Width: 434
GlyphClass: 2
Flags: HW
LayerCount: 2
Fore
SplineSet
115 1434 m 1
 319 1434 l 1
 319 1024 l 1
 268 307 l 1
 166 307 l 1
 115 1024 l 1
 115 1434 l 1
115 205 m 1
 319 205 l 1
 319 0 l 1
 115 0 l 1
 115 205 l 1
EndSplineSet
EndChar

StartChar: quotedbl
Encoding: 34 34 5
Width: 618
GlyphClass: 2
Flags: HW
LayerCount: 2
Fore
SplineSet
346 1434 m 1
 510 1434 l 1
 510 1106 l 1
 346 1106 l 1
 346 1434 l 1
109 1434 m 1
 272 1434 l 1
 272 1106 l 1
 109 1106 l 1
 109 1434 l 1
EndSplineSet
EndChar

StartChar: percent
Encoding: 37 37 6
Width: 856
GlyphClass: 2
Flags: HW
LayerCount: 2
Fore
SplineSet
578 1434 m 1
 738 1434 l 1
 268 -203 l 1
 106 -203 l 1
 578 1434 l 1
240 1394 m 256
 282.667 1394 319 1379.33 349 1350 c 128
 379 1320.67 394.333 1284.67 395 1242 c 1
 395 1096 l 2
 395 1052.67 379.833 1016 349.5 986 c 128
 319.167 956 282.667 941 240 941 c 0
 198 941 162.167 955.667 132.5 985 c 128
 102.833 1014.33 87.3333 1050 86 1092 c 1
 86 1096 l 1
 86 1240 l 2
 86 1282.67 101 1319 131 1349 c 128
 161 1379 197.333 1394 240 1394 c 256
240.5 1290 m 128
 226.166 1289.98 214 1285.15 204 1275.5 c 128
 194 1265.83 189 1253.99 189 1240 c 2
 189 1096 l 2
 189 1081.33 194 1069 204 1059 c 128
 214 1049 226 1044 240 1044 c 256
 254 1044 266.167 1048.83 276.5 1058.5 c 128
 286.835 1068.17 292.002 1080 292 1094 c 2
 292 1240 l 2
 292 1254 287 1265.83 277 1275.5 c 128
 267 1285.17 254.833 1290 240.5 1290 c 128
616 271 m 0
 658 271 694 256.333 724 227 c 128
 754.001 197.667 769.335 162 770 120 c 1
 770 -28 l 2
 769.998 -70.6667 754.832 -107 724.5 -137 c 128
 694.167 -167 658 -182 616 -182 c 0
 573.333 -182 537.167 -167.333 507.5 -138 c 128
 477.833 -108.667 462.333 -73.3334 461 -32 c 1
 461 -28 l 1
 461 116 l 2
 461 159.333 476 196 506 226 c 128
 536 256 572.667 271 616 271 c 0
615.5 168 m 128
 601.166 168 588.999 163 579 153 c 128
 569 143 564 131.333 564 118 c 2
 564 -28 l 2
 564 -42 569 -53.8333 579 -63.5 c 128
 589.001 -73.1666 601.335 -78 616 -78 c 0
 629.333 -78 641 -73.3334 651 -64 c 128
 661 -54.6667 666 -43.3333 666 -30 c 2
 666 116 l 2
 666 130.667 661.167 143 651.5 153 c 128
 641.833 163 629.833 168 615.5 168 c 128
EndSplineSet
EndChar

StartChar: quotesingle
Encoding: 39 39 7
Width: 380
GlyphClass: 2
Flags: HW
LayerCount: 2
Fore
SplineSet
109 1434 m 1
 272 1434 l 1
 272 1106 l 1
 109 1106 l 1
 109 1434 l 1
EndSplineSet
EndChar

StartChar: parenleft
Encoding: 40 40 8
Width: 448
GlyphClass: 2
Flags: HW
LayerCount: 2
Fore
SplineSet
244 1434 m 1
 244 1434 244 1434 346 1434 c 1
 345.997 1431.33 342.664 1411.83 336 1375.5 c 128
 329.333 1339.17 320.833 1292.67 310.5 1236 c 128
 300.167 1179.33 289.833 1117.17 279.5 1049.5 c 128
 269.167 981.833 260.667 908.833 254 830.5 c 128
 247.333 752.166 244 680 244 614 c 0
 244 512.667 252.5 393.833 269.5 257.5 c 128
 286.5 121.167 302.5 14.1667 317.5 -63.5 c 128
 332.5 -141.167 342 -188.333 346 -205 c 1
 244 -205 l 1
 107.333 68.3333 39 341.333 39 614 c 0
 39 714 47.8333 813.5 65.5 912.5 c 128
 83.1667 1011.5 106 1098.83 134 1174.5 c 128
 162 1250.17 183.5 1305.17 198.5 1339.5 c 128
 213.5 1373.84 228 1404 242 1430 c 1
 242 1430 242 1430 244 1434 c 1
EndSplineSet
EndChar

StartChar: plus
Encoding: 43 43 10
Width: 1013
GlyphClass: 2
Flags: HW
LayerCount: 2
Fore
SplineSet
918 617 m 1
 918 411 l 1
 610 411 l 1
 610 103 l 1
 404 103 l 1
 404 411 l 1
 96 411 l 1
 96 617 l 1
 404 617 l 1
 404 924 l 1
 610 924 l 1
 610 617 l 1
 918 617 l 1
EndSplineSet
EndChar

StartChar: comma
Encoding: 44 44 11
Width: 376
GlyphClass: 2
Flags: HW
LayerCount: 2
Fore
SplineSet
86 205 m 1
 291 205 l 1
 291 0 l 1
 86 -205 l 1
 86 205 l 1
EndSplineSet
EndChar

StartChar: hyphen
Encoding: 45 45 12
Width: 671
GlyphClass: 2
Flags: HW
LayerCount: 2
Fore
SplineSet
90 729 m 1
 582 729 l 1
 582 565 l 1
 90 565 l 1
 90 729 l 1
EndSplineSet
EndChar

StartChar: period
Encoding: 46 46 13
Width: 376
GlyphClass: 2
Flags: HW
LayerCount: 2
Fore
SplineSet
86 205 m 1
 291 205 l 1
 291 0 l 1
 86 0 l 1
 86 205 l 1
EndSplineSet
EndChar

StartChar: zero
Encoding: 48 48 15
Width: 753
GlyphClass: 2
Flags: HW
LayerCount: 2
Fore
SplineSet
377 1434 m 128
 461.667 1434 534 1403.83 594 1343.5 c 128
 654 1283.17 684 1210.67 684 1126 c 2
 684 307 l 2
 684 222.333 654 150 594 90 c 128
 534 30 461.667 0 377 0 c 128
 292.333 0 220 30 160 90 c 128
 100 150 70 222.333 70 307 c 2
 70 1126 l 2
 70 1210.67 100 1283.17 160 1343.5 c 128
 220 1403.84 292.333 1434 377 1434 c 128
377 1229 m 128
 348.333 1229 324 1219 304 1199 c 128
 284 1179 274 1154.67 274 1126 c 2
 274 307 l 2
 274 278.333 284 254.167 304 234.5 c 128
 324 214.833 348.333 205 377 205 c 128
 405.667 205 429.833 214.833 449.5 234.5 c 128
 469.167 254.167 479 278.333 479 307 c 2
 479 1126 l 2
 478.999 1154.67 469.166 1179 449.5 1199 c 128
 429.833 1219 405.666 1229 377 1229 c 128
EndSplineSet
EndChar

StartChar: one
Encoding: 49 49 16
Width: 753
GlyphClass: 2
Flags: HW
LayerCount: 2
Fore
SplineSet
313 1434 m 1
 518 1434 l 1
 518 0 l 1
 313 0 l 1
 313 1229 l 1
 109 1024 l 1
 109 1229 l 1
 313 1434 l 1
EndSplineSet
EndChar

StartChar: two
Encoding: 50 50 17
Width: 753
GlyphClass: 2
Flags: HW
LayerCount: 2
Fore
SplineSet
377 1434 m 128
 461.667 1434 534 1403.83 594 1343.5 c 128
 654 1283.17 684 1210.67 684 1126 c 0
 684 1080.67 675 1038.33 657 999 c 2
 299 205 l 1
 684 205 l 1
 684 0 l 1
 70 0 l 1
 70 205 l 1
 455 1047 l 1
 471.667 1086.33 479.667 1112.67 479 1126 c 1
 478.999 1154.67 469.166 1179 449.5 1199 c 128
 429.833 1219 405.666 1229 377 1229 c 128
 348.333 1229 324 1219 304 1199 c 128
 284 1179 274 1154.67 274 1126 c 1
 70 1126 l 1
 70 1210.67 100 1283.17 160 1343.5 c 128
 220 1403.84 292.333 1434 377 1434 c 128
EndSplineSet
EndChar

StartChar: three
Encoding: 51 51 18
Width: 753
GlyphClass: 2
Flags: HW
LayerCount: 2
Fore
SplineSet
377 1434 m 128
 461.667 1434 534 1403.83 594 1343.5 c 128
 654 1283.17 684 1210.67 684 1126 c 2
 684 922 l 2
 684 844 658 775.667 606 717 c 1
 658 658.333 684 590 684 512 c 2
 684 307 l 2
 684 222.333 654 150 594 90 c 128
 534 30 461.667 0 377 0 c 128
 292.333 0 220 30 160 90 c 128
 100 150 70 222.333 70 307 c 2
 70 410 l 1
 274 410 l 1
 274 307 l 2
 274 278.333 284 254.167 304 234.5 c 128
 324 214.833 348.333 205 377 205 c 128
 405.667 205 429.833 214.833 449.5 234.5 c 128
 469.167 254.167 479 278.333 479 307 c 2
 479 512 l 2
 478.999 540.668 469.166 564.835 449.5 584.5 c 128
 429.833 604.17 405.666 614.003 377 614 c 1
 377 819 l 1
 405.667 819 429.833 829 449.5 849 c 128
 469.167 869.001 479 893.334 479 922 c 2
 479 1126 l 2
 478.999 1154.67 469.166 1179 449.5 1199 c 128
 429.833 1219 405.666 1229 377 1229 c 128
 348.333 1229 324 1219 304 1199 c 128
 284 1179 274 1154.67 274 1126 c 2
 274 1024 l 1
 70 1024 l 1
 70 1126 l 2
 70 1210.67 100 1283.17 160 1343.5 c 128
 220 1403.84 292.333 1434 377 1434 c 128
EndSplineSet
EndChar

StartChar: four
Encoding: 52 52 19
Width: 651
GlyphClass: 2
Flags: HW
LayerCount: 2
Fore
SplineSet
223 1434 m 1
 428 1434 l 1
 223 410 l 1
 377 410 l 1
 377 717 l 1
 582 717 l 1
 582 410 l 1
 633 410 l 1
 633 205 l 1
 582 205 l 1
 582 0 l 1
 377 0 l 1
 377 205 l 1
 18 205 l 1
 18 410 l 1
 223 1434 l 1
EndSplineSet
EndChar

StartChar: five
Encoding: 53 53 20
Width: 753
GlyphClass: 2
Flags: HW
LayerCount: 2
Fore
SplineSet
70 1434 m 1
 582 1434 l 1
 582 1229 l 1
 274 1229 l 1
 274 903 l 1
 306.667 915.005 341 921.338 377 922 c 1
 461.667 921.999 534 891.832 594 831.5 c 128
 654 771.167 684 698.667 684 614 c 2
 684 307 l 2
 684 222.333 654 150 594 90 c 128
 534 30 461.667 0 377 0 c 128
 292.333 0 220 30 160 90 c 128
 100 150 70 222.333 70 307 c 2
 70 410 l 1
 274 410 l 1
 274 307 l 2
 274 278.333 284 254.167 304 234.5 c 128
 324 214.833 348.333 205 377 205 c 128
 405.667 205 429.833 214.833 449.5 234.5 c 128
 469.167 254.167 479 278.333 479 307 c 2
 479 614 l 2
 478.999 642.666 469.166 667 449.5 687 c 128
 429.833 707 405.666 717 377 717 c 128
 348.333 717 324 707 304 687 c 128
 284 667 274 642.667 274 614 c 1
 70 614 l 1
 70 1229 l 1
 70 1434 l 1
EndSplineSet
EndChar

StartChar: six
Encoding: 54 54 21
Width: 753
GlyphClass: 2
Flags: HW
LayerCount: 2
Fore
SplineSet
377 1434 m 128
 461.667 1434 534 1403.83 594 1343.5 c 128
 654 1283.17 684 1210.67 684 1126 c 2
 684 1024 l 1
 479 1024 l 1
 479 1126 l 2
 478.999 1154.67 469.166 1179 449.5 1199 c 128
 429.833 1219 405.666 1229 377 1229 c 128
 348.333 1229 324 1219 304 1199 c 128
 284 1179 274 1154.67 274 1126 c 2
 274 903 l 1
 306.667 915.005 341 921.338 377 922 c 1
 461.667 921.999 534 891.832 594 831.5 c 128
 654 771.167 684 698.667 684 614 c 2
 684 307 l 2
 684 222.333 654 150 594 90 c 128
 534 30 461.667 0 377 0 c 128
 292.333 0 220 30 160 90 c 128
 100 150 70 222.333 70 307 c 2
 70 614 l 1
 70 1126 l 2
 70 1210.67 100 1283.17 160 1343.5 c 128
 220 1403.84 292.333 1434 377 1434 c 128
377 717 m 128
 348.333 717 324 707 304 687 c 128
 284 667 274 642.667 274 614 c 2
 274 307 l 2
 274 278.333 284 254.167 304 234.5 c 128
 324 214.833 348.333 205 377 205 c 128
 405.667 205 429.833 214.833 449.5 234.5 c 128
 469.167 254.167 479 278.333 479 307 c 2
 479 614 l 2
 478.999 642.666 469.166 667 449.5 687 c 128
 429.833 707 405.666 717 377 717 c 128
EndSplineSet
EndChar

StartChar: seven
Encoding: 55 55 22
Width: 751
GlyphClass: 2
Flags: HW
LayerCount: 2
Fore
SplineSet
70 1128 m 1
 70 1434 l 1
 682 1434 l 1
 682 1231 l 1
 272 2 l 1
 70 2 l 1
 479 1231 l 1
 272 1231 l 1
 272 1128 l 1
 70 1128 l 1
EndSplineSet
EndChar

StartChar: eight
Encoding: 56 56 23
Width: 753
GlyphClass: 2
Flags: HW
LayerCount: 2
Fore
SplineSet
377 1434 m 128
 461.667 1434 534 1403.83 594 1343.5 c 128
 654 1283.17 684 1210.67 684 1126 c 2
 684 999 l 2
 684 919.667 658 851.667 606 795 c 1
 658 736.333 684 668 684 590 c 2
 684 307 l 2
 684 222.333 654 150 594 90 c 128
 534 30 461.667 0 377 0 c 128
 292.333 0 220 30 160 90 c 128
 100 150 70 222.333 70 307 c 2
 70 590 l 2
 70 668 95.6667 736.333 147 795 c 1
 95 852.333 69.3333 920.333 70 999 c 1
 70 1126 l 2
 70 1210.67 100 1283.17 160 1343.5 c 128
 220 1403.84 292.333 1434 377 1434 c 128
377 1229 m 128
 348.333 1229 324 1219 304 1199 c 128
 284 1179 274 1154.67 274 1126 c 2
 274 999 l 2
 274 969 284 944.5 304 925.5 c 128
 324 906.5 348.333 897 377 897 c 128
 405.667 897 429.833 906.5 449.5 925.5 c 128
 469.167 944.5 479 969 479 999 c 2
 479 1126 l 2
 478.999 1154.67 469.166 1179 449.5 1199 c 128
 429.833 1219 405.666 1229 377 1229 c 128
377 692 m 128
 348.333 692 324 682.167 304 662.5 c 128
 284 642.833 274 618.667 274 590 c 2
 274 307 l 2
 274 278.333 284 254.167 304 234.5 c 128
 324 214.833 348.333 205 377 205 c 128
 405.667 205 429.833 214.833 449.5 234.5 c 128
 469.167 254.167 479 278.333 479 307 c 2
 479 590 l 2
 478.999 618.668 469.166 642.834 449.5 662.5 c 128
 429.833 682.169 405.666 692.003 377 692 c 128
EndSplineSet
EndChar

StartChar: nine
Encoding: 57 57 24
Width: 753
GlyphClass: 2
Flags: HW
LayerCount: 2
Fore
SplineSet
377 0 m 128
 292.333 0 220 30 160 90 c 128
 100 150 70 222.333 70 307 c 2
 70 410 l 1
 274 410 l 1
 274 307 l 2
 274 278.333 284 254.167 304 234.5 c 128
 324 214.833 348.333 205 377 205 c 128
 405.667 205 429.833 214.833 449.5 234.5 c 128
 469.167 254.167 479 278.333 479 307 c 2
 479 530 l 1
 446.333 518 412.333 512 377 512 c 0
 292.333 512 220 542 160 602 c 128
 100 662 70 734.334 70 819 c 2
 70 1126 l 2
 70 1210.67 100 1283.17 160 1343.5 c 128
 220 1403.84 292.333 1434 377 1434 c 128
 461.667 1434 534 1403.83 594 1343.5 c 128
 654 1283.17 684 1210.67 684 1126 c 2
 684 819 l 1
 684 307 l 2
 684 222.333 654 150 594 90 c 128
 534 30 461.667 0 377 0 c 128
377 717 m 128
 405.667 717.001 429.833 726.834 449.5 746.5 c 128
 469.167 766.168 479 790.335 479 819 c 2
 479 1126 l 2
 478.999 1154.67 469.166 1179 449.5 1199 c 128
 429.833 1219 405.666 1229 377 1229 c 128
 348.333 1229 324 1219 304 1199 c 128
 284 1179 274 1154.67 274 1126 c 2
 274 819 l 2
 274 790.333 284 766.167 304 746.5 c 128
 324 726.833 348.333 717 377 717 c 128
EndSplineSet
EndChar

StartChar: colon
Encoding: 58 58 25
Width: 376
GlyphClass: 2
Flags: HW
LayerCount: 2
Fore
SplineSet
86 1024 m 1
 291 1024 l 1
 291 819 l 1
 86 819 l 1
 86 1024 l 1
86 205 m 1
 291 205 l 1
 291 0 l 1
 86 0 l 1
 86 205 l 1
EndSplineSet
EndChar

StartChar: semicolon
Encoding: 59 59 26
Width: 376
GlyphClass: 2
Flags: HW
LayerCount: 2
Fore
SplineSet
86 1024 m 1
 291 1024 l 1
 291 819 l 1
 86 819 l 1
 86 1024 l 1
86 205 m 1
 291 205 l 1
 291 0 l 1
 86 -205 l 1
 86 205 l 1
EndSplineSet
EndChar

StartChar: less
Encoding: 60 60 27
Width: 901
GlyphClass: 2
Flags: HW
LayerCount: 2
Fore
SplineSet
874 956 m 1
 874 739 l 1
 660 527 l 1
 874 314 l 1
 874 98 l 1
 443 527 l 1
 874 956 l 1
EndSplineSet
EndChar

StartChar: equal
Encoding: 61 61 28
Width: 671
GlyphClass: 2
Flags: HW
LayerCount: 2
Fore
SplineSet
90 479 m 1
 582 479 l 1
 582 315 l 1
 90 315 l 1
 90 479 l 1
90 729 m 1
 582 729 l 1
 582 565 l 1
 90 565 l 1
 90 729 l 1
EndSplineSet
EndChar

StartChar: greater
Encoding: 62 62 29
Width: 901
GlyphClass: 2
Flags: HW
LayerCount: 2
Fore
SplineSet
450 956 m 1
 450 739 l 1
 664 527 l 1
 450 314 l 1
 450 98 l 1
 881 527 l 1
 450 956 l 1
EndSplineSet
EndChar

StartChar: question
Encoding: 63 63 30
Width: 745
GlyphClass: 2
Flags: HW
LayerCount: 2
Fore
SplineSet
373 1434 m 128
 457.667 1434 530 1403.83 590 1343.5 c 128
 650 1283.17 680 1210.67 680 1126 c 2
 680 973 l 2
 680 919.666 665.667 862.333 637 801 c 0
 625 775 601.5 736 566.5 684 c 128
 531.5 632 509.333 591.667 500 563 c 1
 493.333 539.667 487.833 515.5 483.5 490.5 c 128
 479.167 465.5 476.333 445.333 475 430 c 1
 475 410 l 1
 475 307 l 1
 270 307 l 1
 270 461 l 2
 270 514.333 284.333 571.667 313 633 c 0
 325 659 348.5 697.833 383.5 749.5 c 128
 418.5 801.168 441 841.335 451 870 c 1
 457.667 893.333 463 917.667 467 943 c 128
 471.005 968.333 473.672 988.667 475 1004 c 1
 475 1024 l 1
 475 1126 l 2
 474.999 1154.67 465.166 1179 445.5 1199 c 128
 425.833 1219 401.666 1229 373 1229 c 128
 344.333 1229 320 1219 300 1199 c 128
 280 1179 270 1154.67 270 1126 c 2
 270 1024 l 1
 66 1024 l 1
 66 1126 l 2
 66 1210.67 96 1283.17 156 1343.5 c 128
 216 1403.84 288.333 1434 373 1434 c 128
270 205 m 1
 475 205 l 1
 475 0 l 1
 270 0 l 1
 270 205 l 1
EndSplineSet
EndChar

StartChar: A
Encoding: 65 65 32
Width: 825
GlyphClass: 2
Flags: HW
LayerCount: 2
Fore
SplineSet
311 1434 m 1
 514 1434 l 1
 821 0 l 1
 618 0 l 1
 557 307 l 1
 268 309 l 1
 207 0 l 1
 4 0 l 1
 311 1434 l 1
412 1024 m 1
 309 510 l 1
 516 510 l 1
 414 1024 l 1
 414 1024 414 1024 412 1024 c 1
EndSplineSet
EndChar

StartChar: B
Encoding: 66 66 33
Width: 808
GlyphClass: 2
Flags: HW
LayerCount: 2
Fore
SplineSet
98 1432 m 1
 508 1432 l 2
 564 1432 611.834 1412.17 651.5 1372.5 c 128
 691.168 1332.83 711.001 1284.33 711 1227 c 2
 711 793 l 2
 711 772.333 703.5 754.5 688.5 739.5 c 128
 673.5 724.5 655.667 717 635 717 c 1
 635 715 l 1
 655.667 715 673.5 707.5 688.5 692.5 c 128
 703.5 677.5 711 659.667 711 639 c 2
 711 203 l 2
 711 147 691.167 99.1666 651.5 59.5 c 128
 611.833 19.8333 564 6.55651e-07 508 0 c 2
 98 0 l 1
 98 1432 l 1
301 1229 m 1
 301 817 l 1
 430 817 l 2
 452 817 470.5 824.5 485.5 839.5 c 128
 500.5 854.5 508 873 508 895 c 2
 508 1151 l 2
 508 1173 500.5 1191.5 485.5 1206.5 c 128
 470.5 1221.5 452 1229 430 1229 c 2
 301 1229 l 1
301 614 m 1
 301 203 l 1
 430 203 l 2
 452 203 470.5 210.5 485.5 225.5 c 128
 500.5 240.5 508 259 508 281 c 2
 508 537 l 2
 508 559.001 500.5 577.334 485.5 592 c 128
 470.5 606.669 452 614.003 430 614 c 2
 301 614 l 1
EndSplineSet
EndChar

StartChar: C
Encoding: 67 67 34
Width: 761
GlyphClass: 2
Flags: HW
LayerCount: 2
Fore
SplineSet
393 1434 m 128
 477.667 1434 550 1403.83 610 1343.5 c 128
 670 1283.17 700 1210.67 700 1126 c 2
 700 1024 l 1
 496 1024 l 1
 496 1126 l 2
 496 1154.67 486 1179 466 1199 c 128
 446 1219 421.666 1229 393 1229 c 128
 364.333 1229 340.166 1219 320.5 1199 c 128
 300.833 1179 291 1154.67 291 1126 c 2
 291 307 l 2
 291 278.333 300.833 254.167 320.5 234.5 c 128
 340.167 214.833 364.333 205 393 205 c 128
 421.667 205 446 214.833 466 234.5 c 128
 486 254.167 496 278.333 496 307 c 2
 496 410 l 1
 700 410 l 1
 700 307 l 2
 700 222.333 670 150 610 90 c 128
 550 30 477.666 0 393 0 c 128
 308.333 0 236 30 176 90 c 128
 116 150 86 222.333 86 307 c 2
 86 1126 l 2
 86 1210.67 116 1283.17 176 1343.5 c 128
 236 1403.84 308.333 1434 393 1434 c 128
EndSplineSet
EndChar

StartChar: D
Encoding: 68 68 35
Width: 808
GlyphClass: 2
Flags: HW
LayerCount: 2
Fore
SplineSet
98 1434 m 1
 508 1434 l 2
 564 1434 611.834 1414.17 651.5 1374.5 c 128
 691.168 1334.83 711.001 1286.33 711 1229 c 2
 711 203 l 2
 711 147 691.167 99.1666 651.5 59.5 c 128
 611.833 19.8333 564 6.55651e-07 508 0 c 2
 98 0 l 1
 98 1434 l 1
301 1231 m 1
 301 203 l 1
 430 203 l 2
 452 203 470.5 210.5 485.5 225.5 c 128
 500.5 240.5 508 259 508 281 c 2
 508 1153 l 2
 508 1175 500.5 1193.5 485.5 1208.5 c 128
 470.5 1223.5 452 1231 430 1231 c 2
 301 1231 l 1
EndSplineSet
EndChar

StartChar: E
Encoding: 69 69 36
Width: 749
GlyphClass: 2
Flags: HW
LayerCount: 2
Fore
SplineSet
98 0 m 1
 98 1434 l 1
 713 1434 l 1
 713 1229 l 1
 303 1229 l 1
 303 819 l 1
 610 819 l 1
 610 614 l 1
 303 614 l 1
 303 205 l 1
 713 205 l 1
 713 0 l 1
 98 0 l 1
EndSplineSet
EndChar

StartChar: F
Encoding: 70 70 37
Width: 749
GlyphClass: 2
Flags: HW
LayerCount: 2
Fore
SplineSet
98 1434 m 1
 98 0 l 1
 303 0 l 1
 303 614 l 1
 610 614 l 1
 610 819 l 1
 303 819 l 1
 303 1229 l 1
 713 1229 l 1
 713 1434 l 1
 98 1434 l 1
EndSplineSet
EndChar

StartChar: G
Encoding: 71 71 38
Width: 786
GlyphClass: 2
Flags: HW
LayerCount: 2
Fore
SplineSet
393 1434 m 128
 477.667 1434 550 1403.83 610 1343.5 c 128
 670 1283.17 700 1210.67 700 1126 c 1
 496 1126 l 1
 496 1154.67 486 1179 466 1199 c 128
 446 1219 421.666 1229 393 1229 c 128
 364.333 1229 340.166 1219 320.5 1199 c 128
 300.833 1179 291 1154.67 291 1126 c 2
 291 307 l 2
 291 278.333 300.833 254.167 320.5 234.5 c 128
 340.167 214.833 364.333 205 393 205 c 128
 421.667 205 446 214.833 466 234.5 c 128
 486 254.167 496 278.333 496 307 c 2
 496 614 l 1
 393 614 l 1
 393 819 l 1
 700 819 l 1
 700 307 l 2
 700 222.333 670 150 610 90 c 128
 550 30 477.666 0 393 0 c 128
 308.333 0 236 30 176 90 c 128
 116 150 86 222.333 86 307 c 2
 86 1126 l 2
 86 1210.67 116 1283.17 176 1343.5 c 128
 236 1403.84 308.333 1434 393 1434 c 128
EndSplineSet
EndChar

StartChar: H
Encoding: 72 72 39
Width: 811
GlyphClass: 2
Flags: HW
LayerCount: 2
Fore
SplineSet
98 1434 m 1
 303 1434 l 1
 303 819 l 1
 508 819 l 1
 508 1434 l 1
 713 1434 l 1
 713 0 l 1
 508 0 l 1
 508 614 l 1
 303 614 l 1
 303 0 l 1
 98 0 l 1
 98 1434 l 1
EndSplineSet
EndChar

StartChar: I
Encoding: 73 73 40
Width: 413
GlyphClass: 2
Flags: HW
LayerCount: 2
Fore
SplineSet
309 0 m 1
 104 0 l 1
 104 1434 l 1
 309 1434 l 1
 309 0 l 1
EndSplineSet
EndChar

StartChar: J
Encoding: 74 74 41
Width: 462
GlyphClass: 2
Flags: HW
LayerCount: 2
Fore
SplineSet
160 1434 m 1
 365 1434 l 1
 365 205 l 2
 365 149 344.833 100.833 304.5 60.5 c 128
 264.167 20.1667 216 0 160 0 c 2
 -45 0 l 1
 -45 205 l 1
 57 205 l 2
 85.6667 205 110 214.833 130 234.5 c 128
 150 254.167 160 278.333 160 307 c 2
 160 1434 l 1
EndSplineSet
EndChar

StartChar: K
Encoding: 75 75 42
Width: 706
GlyphClass: 2
Flags: HW
LayerCount: 2
Fore
SplineSet
98 1434 m 1
 303 1434 l 1
 303 922 l 1
 508 1434 l 1
 713 1434 l 1
 477 844 l 1
 713 0 l 1
 508 0 l 1
 354 537 l 1
 303 410 l 1
 303 0 l 1
 98 0 l 1
 98 1434 l 1
EndSplineSet
EndChar

StartChar: L
Encoding: 76 76 43
Width: 749
GlyphClass: 2
Flags: HW
LayerCount: 2
Fore
SplineSet
98 0 m 1
 98 1434 l 1
 303 1434 l 1
 303 205 l 1
 713 205 l 1
 713 0 l 1
 98 0 l 1
EndSplineSet
EndChar

StartChar: M
Encoding: 77 77 44
Width: 1118
GlyphClass: 2
Flags: HW
LayerCount: 2
Fore
SplineSet
457 307 m 1
 303 768 l 1
 303 0 l 1
 98 0 l 1
 98 1434 l 1
 303 1434 l 1
 559 666 l 1
 815 1434 l 1
 1020 1434 l 1
 1020 0 l 1
 815 0 l 1
 815 768 l 1
 662 307 l 1
 457 307 l 1
EndSplineSet
EndChar

StartChar: N
Encoding: 78 78 45
Width: 794
GlyphClass: 2
Flags: HW
LayerCount: 2
Fore
SplineSet
90 1434 m 1
 295 1434 l 1
 500 717 l 1
 500 1434 l 1
 705 1434 l 1
 705 0 l 1
 500 0 l 1
 295 717 l 1
 295 0 l 1
 90 0 l 1
 90 1434 l 1
EndSplineSet
EndChar

StartChar: O
Encoding: 79 79 46
Width: 786
GlyphClass: 2
Flags: HW
LayerCount: 2
Fore
SplineSet
393 1434 m 128
 477.667 1434 550 1403.83 610 1343.5 c 128
 670 1283.17 700 1210.67 700 1126 c 2
 700 307 l 2
 700 222.333 670 150 610 90 c 128
 550 30 477.666 0 393 0 c 128
 308.333 0 236 30 176 90 c 128
 116 150 86 222.333 86 307 c 2
 86 1126 l 2
 86 1210.67 116 1283.17 176 1343.5 c 128
 236 1403.84 308.333 1434 393 1434 c 128
393 1229 m 128
 364.333 1229 340.166 1219 320.5 1199 c 128
 300.833 1179 291 1154.67 291 1126 c 2
 291 836 l 1
 291 596 l 1
 291 307 l 2
 291 278.333 300.833 254.167 320.5 234.5 c 128
 340.167 214.833 364.333 205 393 205 c 128
 421.667 205 446 214.833 466 234.5 c 128
 486 254.167 496 278.333 496 307 c 2
 496 596 l 1
 496 836 l 1
 496 1126 l 2
 496 1154.67 486 1179 466 1199 c 128
 446 1219 421.666 1229 393 1229 c 128
EndSplineSet
EndChar

StartChar: P
Encoding: 80 80 47
Width: 768
GlyphClass: 2
Flags: HW
LayerCount: 2
Fore
SplineSet
98 1432 m 1
 508 1432 l 2
 564 1432 611.834 1412.17 651.5 1372.5 c 128
 691.168 1332.83 711.001 1284.33 711 1227 c 2
 711 817 l 2
 711 761 691.167 713.167 651.5 673.5 c 128
 611.833 633.833 564 614 508 614 c 2
 301 614 l 1
 301 0 l 1
 98 0 l 1
 98 1432 l 1
301 1229 m 1
 301 817 l 1
 430 817 l 2
 452 817 470.5 824.5 485.5 839.5 c 128
 500.5 854.5 508 873 508 895 c 2
 508 1151 l 2
 508 1173 500.5 1191.5 485.5 1206.5 c 128
 470.5 1221.5 452 1229 430 1229 c 2
 301 1229 l 1
EndSplineSet
EndChar

StartChar: Q
Encoding: 81 81 48
Width: 790
GlyphClass: 2
Flags: HW
LayerCount: 2
Fore
SplineSet
393 1434 m 128
 477.667 1434 550 1403.83 610 1343.5 c 128
 670 1283.17 700 1210.67 700 1126 c 2
 700 299 l 2
 700 270.333 710 246.167 730 226.5 c 128
 750.001 206.833 774.335 197 803 197 c 1
 803 -8 l 1
 722.333 -8 652.667 19.3333 594 74 c 1
 536.666 24.6667 469.666 0 393 0 c 0
 308.333 0 236 30 176 90 c 128
 116 150 86 222.333 86 307 c 2
 86 1126 l 2
 86 1210.67 116 1283.17 176 1343.5 c 128
 236 1403.84 308.333 1434 393 1434 c 128
393 1229 m 128
 364.333 1229 340.166 1219 320.5 1199 c 128
 300.833 1179 291 1154.67 291 1126 c 2
 291 307 l 2
 291 278.333 300.833 254.167 320.5 234.5 c 128
 340.167 214.833 364.333 205 393 205 c 128
 421.667 205 446 214.833 466 234.5 c 128
 486 254.167 496 278.333 496 307 c 2
 496 1126 l 2
 496 1154.67 486 1179 466 1199 c 128
 446 1219 421.666 1229 393 1229 c 128
EndSplineSet
EndChar

StartChar: R
Encoding: 82 82 49
Width: 788
GlyphClass: 2
Flags: HW
LayerCount: 2
Fore
SplineSet
98 1432 m 1
 508 1430 l 2
 564 1430 611.834 1410.17 651.5 1370.5 c 128
 691.168 1330.83 711.001 1283 711 1227 c 2
 711 817 l 2
 710.999 739 677.332 680.333 610 641 c 1
 610 641 l 1
 711 0 l 1
 508 0 l 1
 406 614 l 1
 301 614 l 1
 301 0 l 1
 98 0 l 1
 98 1432 l 1
301 1229 m 1
 301 815 l 1
 430 815 l 2
 452 815.002 470.5 822.835 485.5 838.5 c 128
 500.5 854.169 508 872.336 508 893 c 2
 508 1149 l 2
 508 1171 500.5 1189.83 485.5 1205.5 c 128
 470.5 1221.17 452 1229 430 1229 c 2
 301 1229 l 1
EndSplineSet
EndChar

StartChar: S
Encoding: 83 83 50
Width: 729
GlyphClass: 2
Flags: HW
LayerCount: 2
Fore
SplineSet
57 410 m 1
 57 307 l 2
 57 222.333 87.1667 150 147.5 90 c 128
 207.833 30 280.333 0 365 0 c 128
 449.667 0 522 30 582 90 c 128
 642 150 672 222.333 672 307 c 2
 672 512 l 2
 672 590 646 658.334 594 717 c 1
 532.667 785 456.333 819 365 819 c 0
 336.333 819 312 829 292 849 c 128
 272 869.001 262 893.334 262 922 c 2
 262 1126 l 2
 262 1154.67 272 1179 292 1199 c 128
 312 1219 336.333 1229 365 1229 c 128
 393.667 1229 417.833 1219 437.5 1199 c 128
 457.167 1179 467 1154.67 467 1126 c 2
 467 1024 l 1
 653 1024 l 1
 672 1024 l 1
 672 1126 l 2
 672 1210.67 642 1283.17 582 1343.5 c 128
 522 1403.84 449.666 1434 365 1434 c 128
 280.333 1434 207.833 1403.83 147.5 1343.5 c 128
 87.1667 1283.17 57 1210.67 57 1126 c 2
 57 922 l 2
 57 844 83 775.667 135 717 c 1
 196.333 649 273 614.667 365 614 c 0
 393.667 614 417.833 604.167 437.5 584.5 c 128
 457.167 564.833 467 540.667 467 512 c 2
 467 307 l 2
 466.999 278.333 457.166 254.167 437.5 234.5 c 128
 417.833 214.833 393.666 205 365 205 c 128
 336.333 205 312 214.833 292 234.5 c 128
 272 254.167 262 278.333 262 307 c 2
 262 410 l 1
 57 410 l 1
EndSplineSet
EndChar

StartChar: T
Encoding: 84 84 51
Width: 602
GlyphClass: 2
Flags: HW
LayerCount: 2
Fore
SplineSet
-6 1434 m 1
 608 1434 l 1
 608 1229 l 1
 403 1229 l 1
 403 0 l 1
 199 0 l 1
 199 1229 l 1
 -6 1229 l 1
 -6 1434 l 1
EndSplineSet
EndChar

StartChar: U
Encoding: 85 85 52
Width: 811
GlyphClass: 2
Flags: HW
LayerCount: 2
Fore
SplineSet
98 1434 m 1
 303 1434 l 1
 303 307 l 2
 303 278.333 312.833 254.167 332.5 234.5 c 128
 352.167 214.833 376.5 205 405.5 205 c 128
 434.5 205 458.833 214.833 478.5 234.5 c 128
 498.167 254.167 508 278.333 508 307 c 2
 508 1434 l 1
 713 1434 l 1
 713 307 l 2
 712.999 222.333 682.832 150 622.5 90 c 128
 562.166 30 489.833 0 405.5 0 c 128
 321.167 0 248.833 30 188.5 90 c 128
 128.167 150 98 222.333 98 307 c 2
 98 1434 l 1
EndSplineSet
EndChar

StartChar: V
Encoding: 86 86 53
Width: 770
GlyphClass: 2
Flags: HW
LayerCount: 2
Fore
SplineSet
27 1434 m 1
 283 -2 l 1
 489 -2 l 1
 745 1434 l 1
 539 1434 l 1
 539 1432 l 1
 385 594 l 1
 233 1432 l 1
 233 1434 l 1
 27 1434 l 1
EndSplineSet
EndChar

StartChar: W
Encoding: 87 87 54
Width: 1296
GlyphClass: 2
Flags: HW
LayerCount: 2
Fore
SplineSet
33 1436 m 1
 289 0 l 1
 496 0 l 1
 649 856 l 1
 801 0 l 1
 1008 0 l 1
 1264 1434 l 1
 1057 1434 l 1
 905 596 l 1
 752 1436 l 1
 545 1436 l 1
 391 596 l 1
 240 1436 l 1
 33 1436 l 1
EndSplineSet
EndChar

StartChar: X
Encoding: 88 88 55
Width: 712
GlyphClass: 2
Flags: HW
LayerCount: 2
Fore
SplineSet
252 717 m 1
 -4 0 l 1
 203 0 l 1
 356 432 l 1
 508 0 l 1
 715 0 l 1
 459 717 l 1
 715 1436 l 1
 508 1436 l 1
 356 1004 l 1
 203 1436 l 1
 -4 1436 l 1
 252 717 l 1
EndSplineSet
EndChar

StartChar: Y
Encoding: 89 89 56
Width: 737
GlyphClass: 2
Flags: HW
LayerCount: 2
Fore
SplineSet
262 408 m 1
 262 -2 l 1
 469 -2 l 1
 469 408 l 1
 725 1434 l 1
 518 1434 l 1
 367 821 l 1
 213 1434 l 1
 6 1434 l 1
 262 408 l 1
EndSplineSet
EndChar

StartChar: Z
Encoding: 90 90 57
Width: 673
GlyphClass: 2
Flags: HW
LayerCount: 2
Fore
SplineSet
31 1434 m 1
 31 1229 l 1
 440 1229 l 1
 31 203 l 1
 31 0 l 1
 643 0 l 1
 643 203 l 1
 233 203 l 1
 643 1229 l 1
 643 1432 l 1
 31 1434 l 1
EndSplineSet
EndChar

StartChar: bracketleft
Encoding: 91 91 58
Width: 544
GlyphClass: 2
Flags: HW
LayerCount: 2
Fore
SplineSet
528 1535 m 1
 325 1535 l 1
 325 -102 l 1
 528 -102 l 1
 528 -204 l 1
 119 -204 l 1
 119 -102 l 1
 119 1535 l 1
 119 1637 l 1
 528 1637 l 1
 528 1535 l 1
EndSplineSet
EndChar

StartChar: backslash
Encoding: 92 92 59
Width: 519
GlyphClass: 2
Flags: HW
LayerCount: 2
Fore
SplineSet
193 1637 m 1
 20 1637 l 1
 326 -203 l 1
 499 -203 l 1
 193 1637 l 1
EndSplineSet
EndChar

StartChar: bracketright
Encoding: 93 93 60
Width: 544
GlyphClass: 2
Flags: HW
LayerCount: 2
Fore
SplineSet
16 1535 m 1
 220 1535 l 1
 220 -102 l 1
 16 -102 l 1
 16 -204 l 1
 426 -204 l 1
 426 -102 l 1
 426 1535 l 1
 426 1637 l 1
 16 1637 l 1
 16 1535 l 1
EndSplineSet
EndChar

StartChar: asciicircum
Encoding: 94 94 61
Width: 733
GlyphClass: 2
Flags: HW
LayerCount: 2
Fore
SplineSet
76.9961 1224 m 5
 298.104 1444.9 l 5
 423.545 1444.9 l 5
 644.445 1224 l 5
 430.715 1224 l 5
 360.755 1293.96 l 5
 290.795 1224 l 5
 76.9961 1224 l 5
EndSplineSet
EndChar

StartChar: grave
Encoding: 96 96 62
Width: 825
GlyphClass: 2
Flags: HWO
LayerCount: 2
Fore
SplineSet
118.259 1486.46 m 5
 332.544 1486.46 l 5
 595 1224 l 5
 380.715 1224 l 5
 118.259 1486.46 l 5
EndSplineSet
EndChar

StartChar: a
Encoding: 97 97 63
Width: 733
GlyphClass: 2
Flags: HW
LayerCount: 2
Fore
SplineSet
358 1024 m 128
 442.667 1024 515.167 994 575.5 934 c 128
 635.833 874 666 801.667 666 717 c 2
 666 0 l 1
 459 0 l 1
 460 182 l 2
 459.999 174.667 455.666 158.333 447 133 c 0
 439.667 109.667 429.5 89.1667 416.5 71.5 c 128
 403.5 53.8333 383 37.5 355 22.5 c 128
 327 7.5 294 0 256 0 c 128
 218 -2.38419e-07 185 7.16667 157 21.5 c 128
 129 35.8333 108.5 52.8333 95.5 72.5 c 128
 82.5 92.1667 72.1666 112 64.5 132 c 128
 56.8333 152 53 169.333 53 184 c 1
 51 205 l 1
 51 307 l 2
 51 391.667 81 464 141 524 c 128
 201 584 273.333 614 358 614 c 0
 386.667 614 411 624 431 644 c 128
 451 664.001 461 688.334 461 717 c 128
 461 745.668 451 769.835 431 789.5 c 128
 411 809.169 386.667 819.002 358 819 c 128
 329.333 819 305.166 809.167 285.5 789.5 c 128
 265.833 769.833 256 745.667 256 717 c 1
 51 717 l 1
 51 801.667 81 874 141 934 c 128
 201 994 273.333 1024 358 1024 c 128
358 205 m 0
 388 205 411.667 213.5 429 230.5 c 128
 446.333 247.5 456.333 264.333 459 281 c 1
 461 307 l 1
 461 428 l 1
 428.333 416 394 410 358 410 c 0
 329.333 410 305.166 400 285.5 380 c 128
 265.833 360 256 335.666 256 307 c 0
 256 304.331 256.333 300.664 257 296 c 128
 257.667 291.332 259.667 283.166 263 271.5 c 128
 266.334 259.833 271.168 249.5 277.5 240.5 c 128
 283.834 231.5 294.001 223.333 308 216 c 128
 322 208.666 338.667 205 358 205 c 0
EndSplineSet
EndChar

StartChar: b
Encoding: 98 98 64
Width: 786
GlyphClass: 2
Flags: HW
LayerCount: 2
Fore
SplineSet
291 1434 m 1
 86 1434 l 1
 86 0 l 1
 291 0 l 1
 291 205 l 2
 291 199.667 291.333 192.167 292 182.5 c 128
 292.667 172.833 296.667 156.333 304 133 c 128
 311.334 109.667 321.5 89.1667 334.5 71.5 c 128
 347.5 53.8333 368 37.5 396 22.5 c 128
 424 7.5 457.167 0 495.5 0 c 128
 533.833 -2.38419e-07 567 7.16667 595 21.5 c 128
 623 35.8333 643.5 52.8333 656.5 72.5 c 128
 669.5 92.1667 679.667 112 687 132 c 128
 694.333 152 698 169.333 698 184 c 1
 700 205 l 1
 700 307 l 1
 700 717 l 1
 700 819 l 2
 700 824.333 699.667 831.833 699 841.5 c 128
 698.333 851.167 694.333 867.667 687 891 c 128
 679.664 914.333 669.498 934.833 656.5 952.5 c 128
 643.5 970.166 623 986.5 595 1001.5 c 128
 567 1016.5 533.833 1024 495.5 1024 c 128
 457.167 1023.99 424 1016.83 396 1002.5 c 128
 368 988.167 347.5 971.167 334.5 951.5 c 128
 321.5 931.833 311.333 912 304 892 c 128
 296.667 872 293 854.667 293 840 c 1
 291 819 l 1
 291 1434 l 1
291 307 m 1
 291 717 l 2
 291 719.672 291.333 723.338 292 728 c 128
 292.667 732.672 294.667 740.838 298 752.5 c 128
 301.335 764.171 306.168 774.504 312.5 783.5 c 128
 318.834 792.5 329.167 800.667 343.5 808 c 128
 357.833 815.333 374.333 819 393 819 c 0
 423 819 446.5 810.5 463.5 793.5 c 128
 480.5 776.5 490.666 759 494 741 c 1
 496 717 l 1
 496 307 l 2
 495.985 304.331 495.652 300.664 495 296 c 128
 494.325 291.332 492.159 283.166 488.5 271.5 c 128
 484.833 259.833 480 249.5 474 240.5 c 128
 468 231.5 457.833 223.333 443.5 216 c 128
 429.167 208.666 412.5 205 393.5 205 c 128
 374.5 205 357.833 208.334 343.5 215 c 128
 329.167 221.667 318.833 230.167 312.5 240.5 c 128
 306.167 250.834 301.333 261.167 298 271.5 c 128
 294.667 281.833 292.333 290.333 291 297 c 1
 291 307 l 1
EndSplineSet
EndChar

StartChar: c
Encoding: 99 99 65
Width: 733
GlyphClass: 2
Flags: HW
LayerCount: 2
Fore
SplineSet
389 205 m 128
 417.667 205 442 214.833 462 234.5 c 128
 482 254.167 492 278.333 492 307 c 1
 696 307 l 1
 696 222.333 666 150 606 90 c 128
 546 30 473.666 0 389 0 c 128
 304.333 0 232 30 172 90 c 128
 112 150 82 222.333 82 307 c 2
 82 717 l 2
 82 801.667 112 874 172 934 c 128
 232 994 304.333 1024 389 1024 c 128
 473.667 1024 546 994 606 934 c 128
 666 874 696 801.667 696 717 c 1
 492 717 l 1
 492 745.668 482 769.835 462 789.5 c 128
 442 809.169 417.666 819.002 389 819 c 128
 360.333 819 336.166 809.167 316.5 789.5 c 128
 296.833 769.833 287 745.667 287 717 c 2
 287 307 l 2
 287 278.333 296.833 254.167 316.5 234.5 c 128
 336.167 214.833 360.333 205 389 205 c 128
EndSplineSet
EndChar

StartChar: d
Encoding: 100 100 66
Width: 786
GlyphClass: 2
Flags: HW
LayerCount: 2
Fore
SplineSet
496 1434 m 1
 700 1434 l 1
 700 0 l 1
 496 0 l 1
 496 205 l 2
 495.985 199.667 495.652 192.167 495 182.5 c 128
 494.331 172.833 490.164 156.333 482.5 133 c 128
 474.833 109.667 464.499 89.1667 451.5 71.5 c 128
 438.5 53.8333 418 37.5 390 22.5 c 128
 362 7.5 328.833 0 290.5 0 c 128
 252.167 -2.38419e-07 219.167 7.16667 191.5 21.5 c 128
 163.833 35.8333 143.5 52.8333 130.5 72.5 c 128
 117.5 92.1667 107.167 112 99.5 132 c 128
 91.8334 152 88 169.333 88 184 c 1
 86 205 l 1
 86 307 l 1
 86 717 l 1
 86 819 l 2
 86 824.333 86.3333 831.833 87 841.5 c 128
 87.6667 851.167 91.8333 867.667 99.5 891 c 128
 107.167 914.333 117.5 934.833 130.5 952.5 c 128
 143.5 970.166 163.833 986.5 191.5 1001.5 c 128
 219.167 1016.5 252.167 1024 290.5 1024 c 128
 328.833 1023.99 362 1016.83 390 1002.5 c 128
 418 988.167 438.5 971.167 451.5 951.5 c 128
 464.5 931.833 474.833 912 482.5 892 c 128
 490.167 872 494 854.667 494 840 c 1
 496 819 l 1
 496 1434 l 1
496 307 m 1
 496 717 l 2
 495.985 719.672 495.652 723.338 495 728 c 128
 494.325 732.672 492.159 740.838 488.5 752.5 c 128
 484.833 764.171 480 774.504 474 783.5 c 128
 468 792.5 457.833 800.667 443.5 808 c 128
 429.167 815.333 412.333 819 393 819 c 0
 363 819 339.5 810.5 322.5 793.5 c 128
 305.5 776.5 295.666 759 293 741 c 1
 291 717 l 1
 291 307 l 2
 291 304.331 291.333 300.664 292 296 c 128
 292.667 291.332 294.667 283.166 298 271.5 c 128
 301.335 259.833 306.168 249.5 312.5 240.5 c 128
 318.834 231.5 329.167 223.333 343.5 216 c 128
 357.833 208.666 374.333 205 393 205 c 0
 423 205 446.5 213.5 463.5 230.5 c 128
 480.5 247.5 490.666 265 494 283 c 1
 496 307 l 1
EndSplineSet
EndChar

StartChar: e
Encoding: 101 101 67
Width: 749
GlyphClass: 2
Flags: HW
LayerCount: 2
Fore
SplineSet
375 1024 m 128
 459.667 1024 532 994 592 934 c 128
 652 874 682 801.667 682 717 c 2
 682 614 l 1
 682 410 l 1
 477 410 l 1
 272 410 l 1
 272 307 l 2
 272 278.333 282 254.167 302 234.5 c 128
 322 214.833 346.333 205 375 205 c 128
 403.667 205 427.833 214.833 447.5 234.5 c 128
 467.167 254.167 477 278.333 477 307 c 1
 682 307 l 1
 682 222.333 652 150 592 90 c 128
 532 30 459.667 0 375 0 c 128
 290.333 0 218 30 158 90 c 128
 98 150 68 222.333 68 307 c 2
 68 717 l 2
 68 801.667 98 874 158 934 c 128
 218 994 290.333 1024 375 1024 c 128
272 614 m 1
 477 614 l 1
 477 717 l 2
 476.999 745.668 467.166 769.835 447.5 789.5 c 128
 427.833 809.169 403.666 819.002 375 819 c 128
 346.333 819 322 809.167 302 789.5 c 128
 282 769.833 272 745.667 272 717 c 2
 272 614 l 1
EndSplineSet
EndChar

StartChar: f
Encoding: 102 102 68
Width: 450
GlyphClass: 2
Flags: HW
LayerCount: 2
Fore
SplineSet
430 1434 m 1
 430 1229 l 1
 401.333 1229 377.166 1219 357.5 1199 c 128
 337.833 1179 328 1154.67 328 1126 c 2
 328 1024 l 1
 430 1024 l 1
 430 819 l 1
 328 819 l 1
 328 0 l 1
 123 0 l 1
 123 819 l 1
 20 819 l 1
 20 1024 l 1
 123 1024 l 1
 123 1130 l 1
 124.333 1213.33 154.667 1284.83 214 1344.5 c 128
 273.333 1404.17 345.333 1434 430 1434 c 1
EndSplineSet
EndChar

StartChar: g
Encoding: 103 103 69
Width: 786
GlyphClass: 2
Flags: HW
LayerCount: 2
Fore
SplineSet
290.5 1024 m 128
 328.833 1023.99 362 1016.83 390 1002.5 c 128
 418 988.167 438.5 971.167 451.5 951.5 c 128
 464.5 931.833 474.833 912 482.5 892 c 128
 490.167 872 494 854.667 494 840 c 1
 496 819 l 1
 496 1024 l 1
 700 1024 l 1
 700 -109 l 1
 700 -113 l 1
 698.665 -196.333 668.332 -267.667 609 -327 c 128
 549.666 -386.333 477.666 -416 393 -416 c 256
 308.333 -416 236 -386 176 -326 c 128
 116 -266 86 -193.667 86 -109 c 1
 291 -109 l 1
 291 -137.667 300.833 -161.833 320.5 -181.5 c 128
 340.167 -201.167 364.333 -211 393 -211 c 0
 420.333 -211 444.333 -201.167 465 -181.5 c 128
 485.667 -161.833 496 -138.333 496 -111 c 2
 496 -109 l 1
 496 205 l 2
 495.985 199.667 495.652 192.167 495 182.5 c 128
 494.331 172.833 490.164 156.333 482.5 133 c 128
 474.833 109.667 464.499 89.1667 451.5 71.5 c 128
 438.5 53.8333 418 37.5 390 22.5 c 128
 362 7.5 328.833 0 290.5 0 c 128
 252.167 -2.38419e-07 219.167 7.16667 191.5 21.5 c 128
 163.833 35.8333 143.5 52.8333 130.5 72.5 c 128
 117.5 92.1667 107.167 112 99.5 132 c 128
 91.8334 152 88 169.333 88 184 c 1
 86 205 l 1
 86 307 l 1
 86 717 l 1
 86 819 l 2
 86 824.333 86.3333 831.833 87 841.5 c 128
 87.6667 851.167 91.8333 867.667 99.5 891 c 128
 107.167 914.333 117.5 934.833 130.5 952.5 c 128
 143.5 970.166 163.833 986.5 191.5 1001.5 c 128
 219.167 1016.5 252.167 1024 290.5 1024 c 128
393 819 m 0
 363 819 339.5 810.5 322.5 793.5 c 128
 305.5 776.5 295.666 759 293 741 c 1
 291 717 l 1
 291 307 l 2
 291 304.331 291.333 300.664 292 296 c 128
 292.667 291.332 294.667 283.166 298 271.5 c 128
 301.335 259.833 306.168 249.5 312.5 240.5 c 128
 318.834 231.5 329.167 223.333 343.5 216 c 128
 357.833 208.666 374.333 205 393 205 c 0
 423 205 446.5 213.5 463.5 230.5 c 128
 480.5 247.5 490.666 265 494 283 c 1
 496 307 l 1
 496 717 l 2
 495.985 719.672 495.652 723.338 495 728 c 128
 494.325 732.672 492.159 740.838 488.5 752.5 c 128
 484.833 764.171 480 774.504 474 783.5 c 128
 468 792.5 457.833 800.667 443.5 808 c 128
 429.167 815.333 412.333 819 393 819 c 0
EndSplineSet
EndChar

StartChar: h
Encoding: 104 104 70
Width: 786
GlyphClass: 2
Flags: HW
LayerCount: 2
Fore
SplineSet
86 1434 m 1
 291 1434 l 1
 291 819 l 2
 291 824.333 291.333 831.833 292 841.5 c 128
 292.667 851.167 296.667 867.667 304 891 c 128
 311.334 914.333 321.5 934.833 334.5 952.5 c 128
 347.5 970.166 368 986.5 396 1001.5 c 128
 424 1016.5 457.167 1024 495.5 1024 c 128
 533.833 1023.99 567 1016.83 595 1002.5 c 128
 623 988.167 643.5 971.167 656.5 951.5 c 128
 669.5 931.833 679.667 912 687 892 c 128
 694.333 872 698 854.667 698 840 c 1
 700 819 l 1
 700 719 l 1
 700 717 l 1
 700 0 l 1
 496 0 l 1
 496 717 l 1
 496 719 l 2
 496 724.333 494.833 730.833 492.5 738.5 c 128
 490.167 746.167 486.333 757.167 481 771.5 c 128
 475.667 785.833 465.5 797.333 450.5 806 c 128
 435.5 814.675 416.333 819.009 393 819 c 0
 372.333 819 354.5 815 339.5 807 c 128
 324.5 798.998 314 788.832 308 776.5 c 128
 301.999 764.164 297.666 753.83 295 745.5 c 128
 292.327 737.164 290.993 728.997 291 721 c 2
 291 0 l 1
 86 0 l 1
 86 1434 l 1
EndSplineSet
EndChar

StartChar: i
Encoding: 105 105 71
Width: 376
GlyphClass: 2
Flags: HW
LayerCount: 2
Fore
SplineSet
86 1434 m 5
 291 1434 l 5
 291 1229 l 5
 86 1229 l 5
 86 1434 l 5
86 1024 m 5
 291 1024 l 5
 291 0 l 5
 86 0 l 5
 86 1024 l 5
EndSplineSet
EndChar

StartChar: j
Encoding: 106 106 72
Width: 348
GlyphClass: 2
Flags: HW
LayerCount: 2
Fore
SplineSet
57 1434 m 1
 262 1434 l 1
 262 1229 l 1
 57 1229 l 1
 57 1434 l 1
57 1024 m 1
 262 1024 l 1
 262 0 l 2
 262 -84.6667 232 -157 172 -217 c 128
 112 -277 39.6667 -307 -45 -307 c 1
 -45 -102 l 1
 -16.3333 -102 7.83333 -92.1667 27.5 -72.5 c 128
 47.1667 -52.8333 57 -28.6667 57 0 c 2
 57 1024 l 1
EndSplineSet
EndChar

StartChar: k
Encoding: 107 107 73
Width: 686
GlyphClass: 2
Flags: HW
LayerCount: 2
Fore
SplineSet
86 1434 m 1
 291 1434 l 1
 291 614 l 1
 496 1024 l 1
 700 1024 l 1
 496 614 l 1
 700 0 l 1
 496 0 l 1
 373 369 l 1
 291 205 l 1
 291 0 l 1
 86 0 l 1
 86 205 l 1
 86 1434 l 1
EndSplineSet
EndChar

StartChar: l
Encoding: 108 108 74
Width: 408
GlyphClass: 2
Flags: HW
LayerCount: 2
Fore
SplineSet
74 1434 m 1
 279 1434 l 1
 279 309 l 1
 279 305 l 1
 280.333 277.667 290.833 254.167 310.5 234.5 c 128
 330.167 214.833 354.333 205 383 205 c 1
 383 0 l 1
 298.333 -9.53674e-07 226 29.6667 166 89 c 128
 106 148.333 75.3333 220.333 74 305 c 1
 74 309 l 1
 74 1434 l 1
EndSplineSet
EndChar

StartChar: m
Encoding: 109 109 75
Width: 1196
GlyphClass: 2
Flags: HW
LayerCount: 2
Fore
SplineSet
86 1024 m 1
 291 1024 l 1
 291 819 l 2
 291 824.333 291.333 831.833 292 841.5 c 128
 292.667 851.167 296.667 867.667 304 891 c 128
 311.334 914.333 321.5 934.833 334.5 952.5 c 128
 347.5 970.166 368 986.5 396 1001.5 c 128
 424 1016.5 457.167 1024 495.5 1024 c 128
 533.833 1023.99 567 1016.83 595 1002.5 c 128
 623 988.167 643.5 971.167 656.5 951.5 c 128
 669.5 931.833 679.667 912 687 892 c 128
 694.333 872 698 854.667 698 840 c 1
 700 819 l 2
 699.999 824.333 700.332 831.833 701 841.5 c 128
 701.68 851.167 705.847 867.667 713.5 891 c 128
 721.168 914.333 731.501 934.833 744.5 952.5 c 128
 757.5 970.166 778 986.5 806 1001.5 c 128
 834 1016.5 867.167 1024 905.5 1024 c 128
 943.833 1023.99 977 1016.83 1005 1002.5 c 128
 1033 988.167 1053.33 971.167 1066 951.5 c 128
 1078.67 931.833 1088.83 912 1096.5 892 c 128
 1104.17 872 1108 854.667 1108 840 c 1
 1110 819 l 1
 1110 719 l 1
 1110 0 l 1
 905 0 l 1
 905 717 l 2
 905 719.672 904.667 723.338 904 728 c 128
 903.333 732.672 901.333 740.838 898 752.5 c 128
 894.66 764.171 889.827 774.504 883.5 783.5 c 128
 877.165 792.5 866.832 800.667 852.5 808 c 128
 838.167 815.333 821.667 819 803 819 c 0
 782.333 819 764.5 815 749.5 807 c 128
 734.5 798.998 724 788.832 718 776.5 c 128
 712 764.164 707.5 753.83 704.5 745.5 c 128
 701.5 737.164 700 728.997 700 721 c 2
 700 719 l 1
 700 0 l 1
 496 0 l 1
 496 717 l 2
 495.985 719.672 495.652 723.338 495 728 c 128
 494.325 732.672 492.159 740.838 488.5 752.5 c 128
 484.833 764.171 480 774.504 474 783.5 c 128
 468 792.5 457.833 800.667 443.5 808 c 128
 429.167 815.333 412.333 819 393 819 c 0
 372.333 819 354.5 815 339.5 807 c 128
 324.5 798.998 314 788.832 308 776.5 c 128
 301.999 764.164 297.666 753.83 295 745.5 c 128
 292.327 737.164 290.993 728.997 291 721 c 2
 291 0 l 1
 86 0 l 1
 86 1024 l 1
EndSplineSet
EndChar

StartChar: n
Encoding: 110 110 76
Width: 786
GlyphClass: 2
Flags: HW
LayerCount: 2
Fore
SplineSet
86 1024 m 1
 291 1024 l 1
 291 819 l 2
 291 824.333 291.333 831.833 292 841.5 c 128
 292.667 851.167 296.667 867.667 304 891 c 128
 311.334 914.333 321.5 934.833 334.5 952.5 c 128
 347.5 970.166 368 986.5 396 1001.5 c 128
 424 1016.5 457.167 1024 495.5 1024 c 128
 533.833 1023.99 567 1016.83 595 1002.5 c 128
 623 988.167 643.5 971.167 656.5 951.5 c 128
 669.5 931.833 679.667 912 687 892 c 128
 694.333 872 698 854.667 698 840 c 1
 700 819 l 1
 700 719 l 1
 700 717 l 1
 700 0 l 1
 496 0 l 1
 496 717 l 1
 496 719 l 2
 496 724.333 494.833 730.833 492.5 738.5 c 128
 490.167 746.167 486.333 757.167 481 771.5 c 128
 475.667 785.833 465.5 797.333 450.5 806 c 128
 435.5 814.675 416.333 819.009 393 819 c 0
 372.333 819 354.5 815 339.5 807 c 128
 324.5 798.998 314 788.832 308 776.5 c 128
 301.999 764.164 297.666 753.83 295 745.5 c 128
 292.327 737.164 290.993 728.997 291 721 c 2
 291 0 l 1
 86 0 l 1
 86 1024 l 1
EndSplineSet
EndChar

StartChar: o
Encoding: 111 111 77
Width: 753
GlyphClass: 2
Flags: HW
LayerCount: 2
Fore
SplineSet
377 1020 m 0
 461.667 1020 534 990.667 594 932 c 128
 654 873.333 684.667 801.667 686 717 c 1
 686 305 l 2
 686 219 655.667 146 595 86 c 128
 534.333 26 461.667 -4 377 -4 c 256
 292.333 -4 220.333 25.3333 161 84 c 128
 101.667 142.667 70.6667 213.667 68 297 c 1
 68 305 l 1
 68 711 l 2
 68 797 98 870 158 930 c 128
 218 990 291 1020 377 1020 c 0
377 813 m 128
 348.333 813 324 803.167 304 783.5 c 128
 284 763.833 274 740.333 274 713 c 2
 274 305 l 2
 274 276.333 284 252.167 304 232.5 c 128
 324 212.833 348.333 203 377 203 c 0
 404.334 203 428.167 212.5 448.5 231.5 c 128
 468.834 250.5 479 273.667 479 301 c 2
 479 711 l 2
 478.999 739.668 469.166 763.835 449.5 783.5 c 128
 429.833 803.166 405.666 812.999 377 813 c 128
EndSplineSet
EndChar

StartChar: p
Encoding: 112 112 78
Width: 786
GlyphClass: 2
Flags: HW
LayerCount: 2
Fore
SplineSet
86 1024 m 1
 291 1024 l 1
 291 819 l 2
 291 824.333 291.333 831.833 292 841.5 c 128
 292.667 851.167 296.667 867.667 304 891 c 128
 311.334 914.333 321.5 934.833 334.5 952.5 c 128
 347.5 970.166 368 986.5 396 1001.5 c 128
 424 1016.5 457.167 1024 495.5 1024 c 128
 533.833 1023.99 567 1016.83 595 1002.5 c 128
 623 988.167 643.5 971.167 656.5 951.5 c 128
 669.5 931.833 679.667 912 687 892 c 128
 694.333 872 698 854.667 698 840 c 1
 700 819 l 1
 700 719 l 1
 700 307 l 1
 700 205 l 2
 700 199.667 699.667 192.167 699 182.5 c 128
 698.333 172.833 694.333 156.333 687 133 c 128
 679.664 109.667 669.498 89.1667 656.5 71.5 c 128
 643.5 53.8333 623 37.5 595 22.5 c 128
 567 7.5 533.833 0 495.5 0 c 128
 457.167 -2.38419e-07 424 7.16667 396 21.5 c 128
 368 35.8333 347.5 52.8333 334.5 72.5 c 128
 321.5 92.1667 311.333 112 304 132 c 128
 296.667 152 293 169.333 293 184 c 1
 291 205 l 1
 291 -410 l 1
 86 -410 l 1
 86 1024 l 1
393 819 m 0
 372.333 819 354.5 815 339.5 807 c 128
 324.5 798.998 314 788.832 308 776.5 c 128
 301.999 764.164 297.666 753.83 295 745.5 c 128
 292.327 737.164 290.993 728.997 291 721 c 2
 291 303 l 2
 291 295 292.333 286.833 295 278.5 c 128
 297.667 270.167 302 259.833 308 247.5 c 128
 314 235.167 324.5 225 339.5 217 c 128
 354.5 209 372.333 205 393 205 c 128
 413.667 205 431.167 208.667 445.5 216 c 128
 459.833 223.333 470.333 233.167 477 245.5 c 128
 483.667 257.833 488.5 268.5 491.5 277.5 c 128
 494.5 286.5 496 294.333 496 301 c 2
 496 717 l 2
 495.985 719.672 495.652 723.338 495 728 c 128
 494.325 732.672 492.159 740.838 488.5 752.5 c 128
 484.833 764.171 480 774.504 474 783.5 c 128
 468 792.5 457.833 800.667 443.5 808 c 128
 429.167 815.333 412.333 819 393 819 c 0
EndSplineSet
EndChar

StartChar: q
Encoding: 113 113 79
Width: 786
GlyphClass: 2
Flags: HW
LayerCount: 2
Fore
SplineSet
290.5 1024 m 128
 328.833 1023.99 362 1016.83 390 1002.5 c 128
 418 988.167 438.5 971.167 451.5 951.5 c 128
 464.5 931.833 474.833 912 482.5 892 c 128
 490.167 872 494 854.667 494 840 c 1
 496 819 l 1
 496 1024 l 1
 700 1024 l 1
 700 -410 l 1
 496 -410 l 1
 496 205 l 2
 495.985 199.667 495.652 192.167 495 182.5 c 128
 494.331 172.833 490.164 156.333 482.5 133 c 128
 474.833 109.667 464.499 89.1667 451.5 71.5 c 128
 438.5 53.8333 418 37.5 390 22.5 c 128
 362 7.5 328.833 0 290.5 0 c 128
 252.167 -2.38419e-07 219.167 7.16667 191.5 21.5 c 128
 163.833 35.8333 143.5 52.8333 130.5 72.5 c 128
 117.5 92.1667 107.167 112 99.5 132 c 128
 91.8334 152 88 169.333 88 184 c 1
 86 205 l 1
 86 301 l 1
 86 717 l 1
 86 819 l 2
 86 824.333 86.3333 831.833 87 841.5 c 128
 87.6667 851.167 91.8333 867.667 99.5 891 c 128
 107.167 914.333 117.5 934.833 130.5 952.5 c 128
 143.5 970.166 163.833 986.5 191.5 1001.5 c 128
 219.167 1016.5 252.167 1024 290.5 1024 c 128
393 819 m 0
 369.667 819 350.5 814.667 335.5 806 c 128
 320.5 797.333 310.333 785.833 305 771.5 c 128
 299.667 757.167 296 746.167 294 738.5 c 128
 292 730.833 291 724.333 291 719 c 2
 291 307 l 2
 291 304.331 291.333 300.664 292 296 c 128
 292.667 291.332 294.667 283.166 298 271.5 c 128
 301.335 259.833 306.168 249.5 312.5 240.5 c 128
 318.834 231.5 329.167 223.333 343.5 216 c 128
 357.833 208.666 374.333 205 393 205 c 0
 413.667 205 431.5 209 446.5 217 c 128
 461.5 225 472 235.167 478 247.5 c 128
 484 259.834 488.5 270.167 491.5 278.5 c 128
 494.5 286.834 496 295.001 496 303 c 2
 496 721 l 2
 496 729 494.5 737.167 491.5 745.5 c 128
 488.5 753.833 484 764.167 478 776.5 c 128
 472 788.833 461.5 799 446.5 807 c 128
 431.499 815 413.666 819 393 819 c 0
EndSplineSet
EndChar

StartChar: r
Encoding: 114 114 80
Width: 720
GlyphClass: 2
Flags: HW
LayerCount: 2
Fore
SplineSet
86 1024 m 1
 291 1024 l 1
 291 819 l 2
 291 824.333 291.333 831.833 292 841.5 c 128
 292.667 851.167 296.667 867.667 304 891 c 128
 311.334 914.333 321.5 934.833 334.5 952.5 c 128
 347.5 970.166 368 986.5 396 1001.5 c 128
 424 1016.5 457.167 1024 495.5 1024 c 128
 533.833 1023.99 567 1016.83 595 1002.5 c 128
 623 988.167 643.5 971.167 656.5 951.5 c 128
 669.5 931.833 679.667 912 687 892 c 128
 694.333 872 698 854.667 698 840 c 1
 700 819 l 1
 700 717 l 1
 496 717 l 1
 495.985 719.672 495.652 723.338 495 728 c 128
 494.325 732.672 492.159 740.838 488.5 752.5 c 128
 484.833 764.171 480 774.504 474 783.5 c 128
 468 792.5 457.833 800.667 443.5 808 c 128
 429.167 815.333 412.333 819 393 819 c 0
 372.333 819 354.5 815 339.5 807 c 128
 324.5 798.998 314 788.832 308 776.5 c 128
 301.999 764.164 297.666 753.83 295 745.5 c 128
 292.327 737.164 290.993 728.997 291 721 c 2
 291 0 l 1
 86 0 l 1
 86 1024 l 1
EndSplineSet
EndChar

StartChar: s
Encoding: 115 115 81
Width: 720
GlyphClass: 2
Flags: HW
LayerCount: 2
Fore
SplineSet
365 1024 m 128
 449.667 1024 522 994 582 934 c 128
 642 874 672 801.667 672 717 c 1
 467 717 l 1
 466.999 745.668 457.166 769.835 437.5 789.5 c 128
 417.833 809.169 393.666 819.002 365 819 c 128
 336.333 819 312 809.167 292 789.5 c 128
 272 769.833 262 745.667 262 717 c 1
 260.667 688.333 270.333 664 291 644 c 128
 311.667 624 335.333 614 362 614 c 0
 445.333 612.667 516.5 582 575.5 522 c 128
 634.5 462 664 390.333 664 307 c 0
 663.999 222.333 633.833 150 573.5 90 c 128
 513.167 30 440.667 0 356 0 c 128
 271.333 0 199 30 139 90 c 128
 79 150 49 222.333 49 307 c 1
 254 307 l 1
 254 278.333 263.833 254.167 283.5 234.5 c 128
 303.167 214.833 327.333 205 356 205 c 128
 384.667 205 409 214.833 429 234.5 c 128
 449 254.167 459 278.333 459 307 c 256
 459 335.667 448.667 360 428 380 c 128
 407.333 400 383.333 410 356 410 c 0
 272.667 411.334 201.667 442 143 502 c 128
 84.3333 562 55 633.667 55 717 c 1
 56.3333 801.667 87.1667 874 147.5 934 c 128
 207.833 994 280.333 1024 365 1024 c 128
EndSplineSet
EndChar

StartChar: t
Encoding: 116 116 82
Width: 432
GlyphClass: 2
Flags: HW
LayerCount: 2
Fore
SplineSet
113 1329 m 1
 317 1329 l 1
 317 1022 l 1
 420 1022 l 1
 420 817 l 1
 317 817 l 1
 317 305 l 2
 317 277.667 327 253.833 347 233.5 c 128
 367 213.167 391.333 203 420 203 c 1
 420 -2 l 1
 335.333 -2 263 28 203 88 c 128
 143 148 113 220.333 113 305 c 2
 113 817 l 1
 10 817 l 1
 10 1022 l 1
 113 1022 l 1
 113 1329 l 1
EndSplineSet
EndChar

StartChar: u
Encoding: 117 117 83
Width: 786
GlyphClass: 2
Flags: HW
LayerCount: 2
Fore
SplineSet
86 1024 m 1
 291 1024 l 1
 291 307 l 2
 291 304.331 291.333 300.664 292 296 c 128
 292.667 291.332 294.667 283.166 298 271.5 c 128
 301.335 259.833 306.168 249.5 312.5 240.5 c 128
 318.834 231.5 329.167 223.333 343.5 216 c 128
 357.833 208.666 374.333 205 393 205 c 0
 413.667 205 431.5 209 446.5 217 c 128
 461.5 225 472 235.167 478 247.5 c 128
 484 259.834 488.5 270.167 491.5 278.5 c 128
 494.5 286.834 496 295.001 496 303 c 2
 496 1024 l 1
 700 1024 l 1
 700 0 l 1
 496 0 l 1
 496 205 l 2
 495.985 199.667 495.652 192.167 495 182.5 c 128
 494.331 172.833 490.164 156.333 482.5 133 c 128
 474.833 109.667 464.499 89.1667 451.5 71.5 c 128
 438.5 53.8333 418 37.5 390 22.5 c 128
 362 7.5 328.833 0 290.5 0 c 128
 252.167 -2.38419e-07 219.167 7.16667 191.5 21.5 c 128
 163.833 35.8333 143.5 52.8333 130.5 72.5 c 128
 117.5 92.1667 107.167 112 99.5 132 c 128
 91.8334 152 88 169.333 88 184 c 1
 86 205 l 1
 86 305 l 1
 86 1024 l 1
EndSplineSet
EndChar

StartChar: v
Encoding: 118 118 84
Width: 610
GlyphClass: 2
Flags: HW
LayerCount: 2
Fore
SplineSet
-2 1024 m 1
 203 1024 l 1
 305 512 l 1
 408 1024 l 1
 612 1024 l 1
 408 0 l 1
 203 0 l 1
 -2 1024 l 1
EndSplineSet
EndChar

StartChar: w
Encoding: 119 119 85
Width: 1028
GlyphClass: 2
Flags: HW
LayerCount: 2
Fore
SplineSet
2 1024 m 1
 207 1024 l 1
 309 512 l 1
 412 1024 l 1
 616 1024 l 1
 719 512 l 1
 821 1024 l 1
 1026 1024 l 1
 821 0 l 1
 616 0 l 1
 514 512 l 1
 412 0 l 1
 207 0 l 1
 2 1024 l 1
EndSplineSet
EndChar

StartChar: x
Encoding: 120 120 86
Width: 569
GlyphClass: 2
Flags: HW
LayerCount: 2
Fore
SplineSet
-23 1024 m 1
 182 1024 l 1
 285 768 l 1
 387 1024 l 1
 592 1024 l 1
 387 512 l 1
 592 0 l 1
 387 0 l 1
 285 256 l 1
 182 0 l 1
 -23 0 l 1
 182 512 l 1
 -23 1024 l 1
EndSplineSet
EndChar

StartChar: y
Encoding: 121 121 87
Width: 610
GlyphClass: 2
Flags: HW
LayerCount: 2
Fore
SplineSet
-2 1024 m 1
 203 1024 l 1
 305 512 l 1
 408 1024 l 1
 612 1024 l 1
 408 0 l 1
 408 -84.6667 377.833 -157 317.5 -217 c 128
 257.167 -277 184.667 -307 100 -307 c 1
 100 -102 l 1
 128.667 -102 153 -92.1667 173 -72.5 c 128
 193 -52.8333 203 -28.6667 203 0 c 1
 -2 1024 l 1
EndSplineSet
EndChar

StartChar: z
Encoding: 122 122 88
Width: 684
GlyphClass: 2
Flags: HW
LayerCount: 2
Fore
SplineSet
35 1024 m 1
 649 1024 l 1
 649 819 l 1
 240 205 l 1
 649 205 l 1
 649 0 l 1
 35 0 l 1
 35 205 l 1
 444 819 l 1
 35 819 l 1
 35 1024 l 1
EndSplineSet
EndChar

StartChar: braceleft
Encoding: 123 123 89
Width: 519
GlyphClass: 2
Flags: HW
LayerCount: 2
Fore
SplineSet
487 -203 m 1
 503 -203 l 1
 503 5 l 1
 474.333 5 449.833 15.1667 429.5 35.5 c 128
 409.167 55.8333 399 80.3333 399 109 c 2
 399 408 l 1
 399 1333 l 2
 399.001 1361.67 409.167 1386.17 429.5 1406.5 c 128
 449.833 1426.84 474.333 1437.01 503 1437 c 1
 503 1645 l 1
 417 1645 348.833 1614.5 298.5 1553.5 c 128
 248.167 1492.5 223 1419 223 1333 c 2
 223 963 l 2
 223 934.333 212.833 909.833 192.5 889.5 c 128
 172.167 869.163 147.667 858.997 119 859 c 1
 119 651 l 1
 147.667 651 172.167 641 192.5 621 c 128
 212.833 601 223 576.667 223 548 c 2
 223 109 l 2
 223 25.6667 246.333 -46.1667 293 -106.5 c 128
 339.667 -166.833 404.333 -199 487 -203 c 1
EndSplineSet
EndChar

StartChar: bar
Encoding: 124 124 90
Width: 413
GlyphClass: 2
Flags: HW
LayerCount: 2
Fore
SplineSet
309 -202 m 1
 104 -202 l 1
 104 1639 l 1
 309 1639 l 1
 309 -202 l 1
EndSplineSet
EndChar

StartChar: braceright
Encoding: 125 125 91
Width: 519
GlyphClass: 2
Flags: HW
LayerCount: 2
Fore
SplineSet
135 -203 m 1
 119 -203 l 1
 119 5 l 1
 147.667 5 172.167 15.1667 192.5 35.5 c 128
 212.833 55.8333 223 80.3333 223 109 c 2
 223 408 l 1
 223 1333 l 2
 223 1361.67 212.833 1386.17 192.5 1406.5 c 128
 172.167 1426.84 147.667 1437.01 119 1437 c 1
 119 1645 l 1
 205 1645 273.167 1614.5 323.5 1553.5 c 128
 373.834 1492.5 399 1419 399 1333 c 2
 399 963 l 2
 399.001 934.333 409.167 909.833 429.5 889.5 c 128
 449.833 869.163 474.333 858.997 503 859 c 1
 503 651 l 1
 474.333 651 449.833 641 429.5 621 c 128
 409.167 601 399 576.667 399 548 c 2
 399 109 l 2
 399 25.6667 375.666 -46.1667 329 -106.5 c 128
 282.333 -166.833 217.667 -199 135 -203 c 1
EndSplineSet
EndChar

StartChar: asciitilde
Encoding: 126 126 92
Width: 1013
GlyphClass: 2
Flags: HW
LayerCount: 2
Fore
SplineSet
459 508 m 0
 533.667 547.333 611.333 554.667 692 530 c 128
 772.667 505.333 832.667 455.666 872 381 c 1
 692 285 l 1
 678.667 309.667 658.667 326.167 632 334.5 c 128
 605.333 342.833 579.333 340.333 554 327 c 0
 479.333 287.667 401.666 280.333 321 305 c 128
 240.333 329.667 180.333 379.333 141 454 c 1
 321 550 l 1
 334.334 525.333 354.5 508.833 381.5 500.5 c 128
 408.5 492.167 434.333 494.667 459 508 c 0
EndSplineSet
EndChar

StartChar: guillemotleft
Encoding: 171 171 94
Width: 901
GlyphClass: 2
Flags: HW
LayerCount: 2
Fore
SplineSet
844 956 m 1
 844 739 l 1
 629 527 l 1
 844 314 l 1
 844 98 l 1
 413 527 l 1
 844 956 l 1
451 956 m 1
 451 739 l 1
 236 527 l 1
 451 314 l 1
 451 98 l 1
 20 527 l 1
 451 956 l 1
EndSplineSet
EndChar

StartChar: guillemotright
Encoding: 187 187 96
Width: 901
GlyphClass: 2
Flags: HW
LayerCount: 2
Fore
SplineSet
57 956 m 1
 57 739 l 1
 271 527 l 1
 57 314 l 1
 57 98 l 1
 488 527 l 1
 57 956 l 1
450 956 m 1
 450 739 l 1
 664 527 l 1
 450 314 l 1
 450 98 l 1
 881 527 l 1
 450 956 l 1
EndSplineSet
EndChar

StartChar: questiondown
Encoding: 191 191 97
Width: 745
GlyphClass: 2
Flags: HW
LayerCount: 2
Fore
SplineSet
373 0 m 128
 288.333 0 216 30 156 90 c 128
 96 150 66 222.333 66 307 c 2
 66 461 l 2
 66 514.333 80.3333 571.667 109 633 c 0
 121 659 144.333 697.833 179 749.5 c 128
 213.667 801.168 236 841.335 246 870 c 1
 252.667 893.333 258 917.667 262 943 c 128
 266.002 968.333 268.668 988.667 270 1004 c 1
 270 1024 l 1
 270 1126 l 1
 475 1126 l 1
 475 973 l 2
 475 919.666 460.666 862.333 432 801 c 0
 420 775 396.5 736 361.5 684 c 128
 326.5 632 304.333 591.667 295 563 c 1
 288.333 539.667 282.833 515.5 278.5 490.5 c 128
 274.167 465.5 271.333 445.333 270 430 c 1
 270 410 l 1
 270 307 l 2
 270 278.333 280 254.167 300 234.5 c 128
 320 214.833 344.333 205 373 205 c 128
 401.667 205 425.833 214.833 445.5 234.5 c 128
 465.167 254.167 475 278.333 475 307 c 2
 475 410 l 1
 680 410 l 1
 680 307 l 2
 680 222.333 650 150 590 90 c 128
 530 30 457.667 0 373 0 c 128
475 1229 m 1
 270 1229 l 1
 270 1434 l 1
 475 1434 l 1
 475 1229 l 1
EndSplineSet
EndChar

StartChar: Agrave
Encoding: 192 192 98
Width: 825
GlyphClass: 2
Flags: HW
LayerCount: 2
Fore
SplineSet
311 1434 m 1
 514 1434 l 1
 821 0 l 1
 618 0 l 1
 557 307 l 1
 268 309 l 1
 207 0 l 1
 4 0 l 1
 311 1434 l 1
412 1024 m 1
 309 510 l 1
 516 510 l 1
 414 1024 l 1
 414 1024 414 1024 412 1024 c 1
EndSplineSet
Refer: 62 96 S 1 0 0 1 0 414 2
EndChar

StartChar: Aacute
Encoding: 193 193 99
Width: 825
GlyphClass: 2
Flags: HW
LayerCount: 2
Fore
SplineSet
311 1434 m 1
 514 1434 l 1
 821 0 l 1
 618 0 l 1
 557 307 l 1
 268 309 l 1
 207 0 l 1
 4 0 l 1
 311 1434 l 1
412 1024 m 1
 309 510 l 1
 516 510 l 1
 414 1024 l 1
 414 1024 414 1024 412 1024 c 1
EndSplineSet
Refer: 62 96 S -1 0 0 1 813.259 414 2
EndChar

StartChar: Acircumflex
Encoding: 194 194 100
Width: 825
GlyphClass: 2
Flags: HW
LayerCount: 2
Fore
SplineSet
311 1434 m 1
 514 1434 l 1
 821 0 l 1
 618 0 l 1
 557 307 l 1
 268 309 l 1
 207 0 l 1
 4 0 l 1
 311 1434 l 1
412 1024 m 1
 309 510 l 1
 516 510 l 1
 414 1024 l 1
 414 1024 414 1024 412 1024 c 1
EndSplineSet
Refer: 61 94 S 1 0 0 1 54 412 2
EndChar

StartChar: Adieresis
Encoding: 196 196 101
Width: 817
GlyphClass: 2
Flags: HW
LayerCount: 2
Fore
SplineSet
311 1434 m 1
 514 1434 l 1
 821 0 l 1
 618 0 l 1
 557 307 l 1
 268 309 l 1
 207 0 l 1
 4 0 l 1
 311 1434 l 1
412 1024 m 1
 309 510 l 1
 516 510 l 1
 414 1024 l 1
 414 1024 414 1024 412 1024 c 1
EndSplineSet
Refer: 245 776 S 1 0 0 1 27 412 2
EndChar

StartChar: AE
Encoding: 198 198 102
Width: 1267
GlyphClass: 2
Flags: HW
LayerCount: 2
Fore
SplineSet
516 1432 m 1
 1231 1432 l 1
 1231 1229 l 1
 821 1229 l 1
 821 817 l 1
 1128 817 l 1
 1128 614 l 1
 821 614 l 1
 821 203 l 1
 1231 203 l 1
 1231 0 l 1
 618 0 l 1
 618 305 l 1
 309 307 l 1
 207 0 l 1
 4 0 l 1
 516 1432 l 1
590 1126 m 1
 385 510 l 1
 618 510 l 1
 618 1126 l 1
 590 1126 l 1
EndSplineSet
EndChar

StartChar: Egrave
Encoding: 200 200 103
Width: 749
GlyphClass: 2
Flags: HW
LayerCount: 2
Fore
SplineSet
98 0 m 1
 98 1434 l 1
 713 1434 l 1
 713 1229 l 1
 303 1229 l 1
 303 819 l 1
 610 819 l 1
 610 614 l 1
 303 614 l 1
 303 205 l 1
 713 205 l 1
 713 0 l 1
 98 0 l 1
EndSplineSet
Refer: 62 96 S 1 0 0 1 -20 414 2
EndChar

StartChar: Eacute
Encoding: 201 201 104
Width: 749
GlyphClass: 2
Flags: HW
LayerCount: 2
Fore
SplineSet
98 0 m 1
 98 1434 l 1
 713 1434 l 1
 713 1229 l 1
 303 1229 l 1
 303 819 l 1
 610 819 l 1
 610 614 l 1
 303 614 l 1
 303 205 l 1
 713 205 l 1
 713 0 l 1
 98 0 l 1
EndSplineSet
Refer: 62 96 S -1 0 0 1 813.259 414 2
EndChar

StartChar: Ecircumflex
Encoding: 202 202 105
Width: 749
GlyphClass: 2
Flags: HW
LayerCount: 2
Fore
SplineSet
98 0 m 1
 98 1434 l 1
 713 1434 l 1
 713 1229 l 1
 303 1229 l 1
 303 819 l 1
 610 819 l 1
 610 614 l 1
 303 614 l 1
 303 205 l 1
 713 205 l 1
 713 0 l 1
 98 0 l 1
EndSplineSet
Refer: 61 94 S 1 0 0 1 54 412 2
EndChar

StartChar: Edieresis
Encoding: 203 203 106
Width: 749
GlyphClass: 2
Flags: HW
LayerCount: 2
Fore
SplineSet
98 0 m 1
 98 1434 l 1
 713 1434 l 1
 713 1229 l 1
 303 1229 l 1
 303 819 l 1
 610 819 l 1
 610 614 l 1
 303 614 l 1
 303 205 l 1
 713 205 l 1
 713 0 l 1
 98 0 l 1
EndSplineSet
Refer: 245 776 S 1 0 0 1 25 412 2
EndChar

StartChar: Igrave
Encoding: 204 204 107
Width: 413
GlyphClass: 2
Flags: HW
LayerCount: 2
Fore
SplineSet
309 0 m 1
 104 0 l 1
 104 1434 l 1
 309 1434 l 1
 309 0 l 1
EndSplineSet
Refer: 62 96 S 1 0 0 1 -310 414 2
EndChar

StartChar: Iacute
Encoding: 205 205 108
Width: 413
GlyphClass: 2
Flags: HW
LayerCount: 2
Fore
SplineSet
309 0 m 1
 104 0 l 1
 104 1434 l 1
 309 1434 l 1
 309 0 l 1
EndSplineSet
Refer: 62 96 S -1 0 0 1 733.259 414 2
EndChar

StartChar: Icircumflex
Encoding: 206 206 109
Width: 401
GlyphClass: 2
Flags: HW
LayerCount: 2
Fore
SplineSet
303 0 m 1
 98 0 l 1
 98 1434 l 1
 303 1434 l 1
 303 0 l 1
EndSplineSet
Refer: 61 94 S 1 0 0 1 -150 408 2
EndChar

StartChar: Idieresis
Encoding: 207 207 110
Width: 479
GlyphClass: 2
Flags: HW
LayerCount: 2
Fore
SplineSet
137 1434 m 1
 342 1434 l 1
 342 0 l 1
 137 0 l 1
 137 1434 l 1
EndSplineSet
Refer: 245 776 S 1 0 0 1 -144 412 2
EndChar

StartChar: Ograve
Encoding: 210 210 111
Width: 786
GlyphClass: 2
Flags: HW
LayerCount: 2
Fore
SplineSet
393 1434 m 128
 477.667 1434 550 1403.83 610 1343.5 c 128
 670 1283.17 700 1210.67 700 1126 c 2
 700 307 l 2
 700 222.333 670 150 610 90 c 128
 550 30 477.666 0 393 0 c 128
 308.333 0 236 30 176 90 c 128
 116 150 86 222.333 86 307 c 2
 86 1126 l 2
 86 1210.67 116 1283.17 176 1343.5 c 128
 236 1403.84 308.333 1434 393 1434 c 128
393 1229 m 128
 364.333 1229 340.166 1219 320.5 1199 c 128
 300.833 1179 291 1154.67 291 1126 c 2
 291 836 l 1
 291 596 l 1
 291 307 l 2
 291 278.333 300.833 254.167 320.5 234.5 c 128
 340.167 214.833 364.333 205 393 205 c 128
 421.667 205 446 214.833 466 234.5 c 128
 486 254.167 496 278.333 496 307 c 2
 496 596 l 1
 496 836 l 1
 496 1126 l 2
 496 1154.67 486 1179 466 1199 c 128
 446 1219 421.666 1229 393 1229 c 128
EndSplineSet
Refer: 62 96 S 1 0 0 1 -70 414 2
EndChar

StartChar: Oacute
Encoding: 211 211 112
Width: 786
GlyphClass: 2
Flags: HW
LayerCount: 2
Fore
SplineSet
393 1434 m 128
 477.667 1434 550 1403.83 610 1343.5 c 128
 670 1283.17 700 1210.67 700 1126 c 2
 700 307 l 2
 700 222.333 670 150 610 90 c 128
 550 30 477.666 0 393 0 c 128
 308.333 0 236 30 176 90 c 128
 116 150 86 222.333 86 307 c 2
 86 1126 l 2
 86 1210.67 116 1283.17 176 1343.5 c 128
 236 1403.84 308.333 1434 393 1434 c 128
393 1229 m 128
 364.333 1229 340.166 1219 320.5 1199 c 128
 300.833 1179 291 1154.67 291 1126 c 2
 291 836 l 1
 291 596 l 1
 291 307 l 2
 291 278.333 300.833 254.167 320.5 234.5 c 128
 340.167 214.833 364.333 205 393 205 c 128
 421.667 205 446 214.833 466 234.5 c 128
 486 254.167 496 278.333 496 307 c 2
 496 596 l 1
 496 836 l 1
 496 1126 l 2
 496 1154.67 486 1179 466 1199 c 128
 446 1219 421.666 1229 393 1229 c 128
EndSplineSet
Refer: 62 96 S -1 0 0 1 863.259 414 2
EndChar

StartChar: Ocircumflex
Encoding: 212 212 113
Width: 786
GlyphClass: 2
Flags: HW
LayerCount: 2
Fore
SplineSet
393 1434 m 128
 477.667 1434 550 1403.83 610 1343.5 c 128
 670 1283.17 700 1210.67 700 1126 c 2
 700 307 l 2
 700 222.333 670 150 610 90 c 128
 550 30 477.666 0 393 0 c 128
 308.333 0 236 30 176 90 c 128
 116 150 86 222.333 86 307 c 2
 86 1126 l 2
 86 1210.67 116 1283.17 176 1343.5 c 128
 236 1403.84 308.333 1434 393 1434 c 128
393 1229 m 128
 364.333 1229 340.166 1219 320.5 1199 c 128
 300.833 1179 291 1154.67 291 1126 c 2
 291 836 l 1
 291 596 l 1
 291 307 l 2
 291 278.333 300.833 254.167 320.5 234.5 c 128
 340.167 214.833 364.333 205 393 205 c 128
 421.667 205 446 214.833 466 234.5 c 128
 486 254.167 496 278.333 496 307 c 2
 496 596 l 1
 496 836 l 1
 496 1126 l 2
 496 1154.67 486 1179 466 1199 c 128
 446 1219 421.666 1229 393 1229 c 128
EndSplineSet
Refer: 61 94 S 1 0 0 1 48 426 2
EndChar

StartChar: multiply
Encoding: 215 215 116
Width: 917
GlyphClass: 2
Flags: HW
LayerCount: 2
Fore
SplineSet
821 532 m 1
 676 387 l 1
 458 604 l 1
 241 387 l 1
 95 532 l 1
 313 749 l 1
 95 967 l 1
 241 1112 l 1
 458 895 l 1
 676 1112 l 1
 821 967 l 1
 604 749 l 1
 821 532 l 1
EndSplineSet
EndChar

StartChar: Ugrave
Encoding: 217 217 117
Width: 811
GlyphClass: 2
Flags: HW
LayerCount: 2
Fore
SplineSet
98 1434 m 1
 303 1434 l 1
 303 307 l 2
 303 278.333 312.833 254.167 332.5 234.5 c 128
 352.167 214.833 376.5 205 405.5 205 c 128
 434.5 205 458.833 214.833 478.5 234.5 c 128
 498.167 254.167 508 278.333 508 307 c 2
 508 1434 l 1
 713 1434 l 1
 713 307 l 2
 712.999 222.333 682.832 150 622.5 90 c 128
 562.166 30 489.833 0 405.5 0 c 128
 321.167 0 248.833 30 188.5 90 c 128
 128.167 150 98 222.333 98 307 c 2
 98 1434 l 1
EndSplineSet
Refer: 62 96 S 1 0 0 1 0 414 2
EndChar

StartChar: Uacute
Encoding: 218 218 118
Width: 811
GlyphClass: 2
Flags: HW
LayerCount: 2
Fore
SplineSet
98 1434 m 1
 303 1434 l 1
 303 307 l 2
 303 278.333 312.833 254.167 332.5 234.5 c 128
 352.167 214.833 376.5 205 405.5 205 c 128
 434.5 205 458.833 214.833 478.5 234.5 c 128
 498.167 254.167 508 278.333 508 307 c 2
 508 1434 l 1
 713 1434 l 1
 713 307 l 2
 712.999 222.333 682.832 150 622.5 90 c 128
 562.166 30 489.833 0 405.5 0 c 128
 321.167 0 248.833 30 188.5 90 c 128
 128.167 150 98 222.333 98 307 c 2
 98 1434 l 1
EndSplineSet
Refer: 62 96 S -1 0 0 1 813.259 414 2
EndChar

StartChar: Ucircumflex
Encoding: 219 219 119
Width: 811
GlyphClass: 2
Flags: HW
LayerCount: 2
Fore
SplineSet
98 1434 m 1
 303 1434 l 1
 303 307 l 2
 303 278.333 312.833 254.167 332.5 234.5 c 128
 352.167 214.833 376.5 205 405.5 205 c 128
 434.5 205 458.833 214.833 478.5 234.5 c 128
 498.167 254.167 508 278.333 508 307 c 2
 508 1434 l 1
 713 1434 l 1
 713 307 l 2
 712.999 222.333 682.832 150 622.5 90 c 128
 562.166 30 489.833 0 405.5 0 c 128
 321.167 0 248.833 30 188.5 90 c 128
 128.167 150 98 222.333 98 307 c 2
 98 1434 l 1
EndSplineSet
Refer: 61 94 S 1 0 0 1 54 412 2
EndChar

StartChar: Udieresis
Encoding: 220 220 120
Width: 811
GlyphClass: 2
Flags: HW
LayerCount: 2
Fore
SplineSet
98 1434 m 1
 303 1434 l 1
 303 307 l 2
 303 278.333 312.833 254.167 332.5 234.5 c 128
 352.167 214.833 376.5 205 405.5 205 c 128
 434.5 205 458.833 214.833 478.5 234.5 c 128
 498.167 254.167 508 278.333 508 307 c 2
 508 1434 l 1
 713 1434 l 1
 713 307 l 2
 712.999 222.333 682.832 150 622.5 90 c 128
 562.166 30 489.833 0 405.5 0 c 128
 321.167 0 248.833 30 188.5 90 c 128
 128.167 150 98 222.333 98 307 c 2
 98 1434 l 1
EndSplineSet
Refer: 245 776 S 1 0 0 1 20 412 2
EndChar

StartChar: agrave
Encoding: 224 224 121
Width: 733
GlyphClass: 2
Flags: HW
LayerCount: 2
Fore
SplineSet
358 1024 m 128
 442.667 1024 515.167 994 575.5 934 c 128
 635.833 874 666 801.667 666 717 c 2
 666 0 l 1
 459 0 l 1
 460 182 l 2
 459.999 174.667 455.666 158.333 447 133 c 0
 439.667 109.667 429.5 89.1667 416.5 71.5 c 128
 403.5 53.8333 383 37.5 355 22.5 c 128
 327 7.5 294 0 256 0 c 128
 218 -2.38419e-07 185 7.16667 157 21.5 c 128
 129 35.8333 108.5 52.8333 95.5 72.5 c 128
 82.5 92.1667 72.1666 112 64.5 132 c 128
 56.8333 152 53 169.333 53 184 c 1
 51 205 l 1
 51 307 l 2
 51 391.667 81 464 141 524 c 128
 201 584 273.333 614 358 614 c 0
 386.667 614 411 624 431 644 c 128
 451 664.001 461 688.334 461 717 c 128
 461 745.668 451 769.835 431 789.5 c 128
 411 809.169 386.667 819.002 358 819 c 128
 329.333 819 305.166 809.167 285.5 789.5 c 128
 265.833 769.833 256 745.667 256 717 c 1
 51 717 l 1
 51 801.667 81 874 141 934 c 128
 201 994 273.333 1024 358 1024 c 128
358 205 m 0
 388 205 411.667 213.5 429 230.5 c 128
 446.333 247.5 456.333 264.333 459 281 c 1
 461 307 l 1
 461 428 l 1
 428.333 416 394 410 358 410 c 0
 329.333 410 305.166 400 285.5 380 c 128
 265.833 360 256 335.666 256 307 c 0
 256 304.331 256.333 300.664 257 296 c 128
 257.667 291.332 259.667 283.166 263 271.5 c 128
 266.334 259.833 271.168 249.5 277.5 240.5 c 128
 283.834 231.5 294.001 223.333 308 216 c 128
 322 208.666 338.667 205 358 205 c 0
EndSplineSet
Refer: 62 96 S 1 0 0 1 0 0 2
EndChar

StartChar: aacute
Encoding: 225 225 122
Width: 733
GlyphClass: 2
Flags: HW
LayerCount: 2
Fore
SplineSet
358 1024 m 128
 442.667 1024 515.167 994 575.5 934 c 128
 635.833 874 666 801.667 666 717 c 2
 666 0 l 1
 459 0 l 1
 460 182 l 2
 459.999 174.667 455.666 158.333 447 133 c 0
 439.667 109.667 429.5 89.1667 416.5 71.5 c 128
 403.5 53.8333 383 37.5 355 22.5 c 128
 327 7.5 294 0 256 0 c 128
 218 -2.38419e-07 185 7.16667 157 21.5 c 128
 129 35.8333 108.5 52.8333 95.5 72.5 c 128
 82.5 92.1667 72.1666 112 64.5 132 c 128
 56.8333 152 53 169.333 53 184 c 1
 51 205 l 1
 51 307 l 2
 51 391.667 81 464 141 524 c 128
 201 584 273.333 614 358 614 c 0
 386.667 614 411 624 431 644 c 128
 451 664.001 461 688.334 461 717 c 128
 461 745.668 451 769.835 431 789.5 c 128
 411 809.169 386.667 819.002 358 819 c 128
 329.333 819 305.166 809.167 285.5 789.5 c 128
 265.833 769.833 256 745.667 256 717 c 1
 51 717 l 1
 51 801.667 81 874 141 934 c 128
 201 994 273.333 1024 358 1024 c 128
358 205 m 0
 388 205 411.667 213.5 429 230.5 c 128
 446.333 247.5 456.333 264.333 459 281 c 1
 461 307 l 1
 461 428 l 1
 428.333 416 394 410 358 410 c 0
 329.333 410 305.166 400 285.5 380 c 128
 265.833 360 256 335.666 256 307 c 0
 256 304.331 256.333 300.664 257 296 c 128
 257.667 291.332 259.667 283.166 263 271.5 c 128
 266.334 259.833 271.168 249.5 277.5 240.5 c 128
 283.834 231.5 294.001 223.333 308 216 c 128
 322 208.666 338.667 205 358 205 c 0
EndSplineSet
Refer: 143 180 S 1 0 0 1 0 0 2
EndChar

StartChar: adieresis
Encoding: 228 228 124
Width: 733
GlyphClass: 2
Flags: HW
LayerCount: 2
Fore
SplineSet
358 1024 m 128
 442.667 1024 515.167 994 575.5 934 c 128
 635.833 874 666 801.667 666 717 c 2
 666 0 l 1
 459 0 l 1
 460 182 l 2
 459.999 174.667 455.666 158.333 447 133 c 0
 439.667 109.667 429.5 89.1667 416.5 71.5 c 128
 403.5 53.8333 383 37.5 355 22.5 c 128
 327 7.5 294 0 256 0 c 128
 218 -2.38419e-07 185 7.16667 157 21.5 c 128
 129 35.8333 108.5 52.8333 95.5 72.5 c 128
 82.5 92.1667 72.1666 112 64.5 132 c 128
 56.8333 152 53 169.333 53 184 c 1
 51 205 l 1
 51 307 l 2
 51 391.667 81 464 141 524 c 128
 201 584 273.333 614 358 614 c 0
 386.667 614 411 624 431 644 c 128
 451 664.001 461 688.334 461 717 c 128
 461 745.668 451 769.835 431 789.5 c 128
 411 809.169 386.667 819.002 358 819 c 128
 329.333 819 305.166 809.167 285.5 789.5 c 128
 265.833 769.833 256 745.667 256 717 c 1
 51 717 l 1
 51 801.667 81 874 141 934 c 128
 201 994 273.333 1024 358 1024 c 128
358 205 m 0
 388 205 411.667 213.5 429 230.5 c 128
 446.333 247.5 456.333 264.333 459 281 c 1
 461 307 l 1
 461 428 l 1
 428.333 416 394 410 358 410 c 0
 329.333 410 305.166 400 285.5 380 c 128
 265.833 360 256 335.666 256 307 c 0
 256 304.331 256.333 300.664 257 296 c 128
 257.667 291.332 259.667 283.166 263 271.5 c 128
 266.334 259.833 271.168 249.5 277.5 240.5 c 128
 283.834 231.5 294.001 223.333 308 216 c 128
 322 208.666 338.667 205 358 205 c 0
EndSplineSet
Refer: 245 776 S 1 0 0 1 -22 0 2
EndChar

StartChar: ae
Encoding: 230 230 125
Width: 1146
GlyphClass: 2
Flags: HW
LayerCount: 2
Fore
SplineSet
770 1028 m 128
 854.667 1028 926.667 998 986 938 c 128
 1045.34 878 1075 805.667 1075 721 c 2
 1075 618 l 1
 1075 416 l 1
 870 416 l 1
 668 416 l 1
 668 313 l 2
 668.004 284.333 677.837 260.167 697.5 240.5 c 128
 717.168 220.833 741.001 211 769 211 c 128
 797.001 211 820.834 220.833 840.5 240.5 c 128
 860.172 260.167 870.005 284.333 870 313 c 1
 1075 313 l 1
 1075 228.333 1045.33 156 986 96 c 128
 926.667 36 854.667 6 770 6 c 128
 685.333 6 613 36 553 96 c 128
 493 156 463 228.333 463 313 c 2
 463 721 l 2
 463 805.667 493 878 553 938 c 128
 613 998 685.333 1028 770 1028 c 128
672 618 m 1
 874 618 l 1
 874 721 l 2
 874 749.668 864.167 773.835 844.5 793.5 c 128
 824.833 813.169 801 823.002 773 823 c 128
 745 823 721.167 813.167 701.5 793.5 c 128
 681.833 773.833 672 749.667 672 721 c 2
 672 618 l 1
365 1028 m 128
 449.667 1028 521.667 998 581 938 c 128
 640.333 878 670 805.667 670 721 c 2
 670 227 l 1
 506 227 l 1
 532 215 l 2
 524 219 512.333 210.667 497 190 c 0
 489.667 180.666 482.5 164.333 475.5 141 c 128
 468.5 117.667 458.5 97.1667 445.5 79.5 c 128
 432.5 61.8333 412 45.5 384 30.5 c 128
 356 15.5 322.833 8 284.5 8 c 128
 246.167 8 209.333 14.8333 174 28.5 c 128
 138.667 42.1667 114.5 59 101.5 79 c 128
 88.5 99 78.1666 118.833 70.5 138.5 c 128
 62.8333 158.167 59 175.333 59 190 c 1
 57 211 l 1
 57 313 l 2
 57 397.667 87.1667 469.667 147.5 529 c 128
 207.833 588.333 280.333 618 365 618 c 0
 392.334 618.002 416.167 628.335 436.5 649 c 128
 456.834 669.668 467 694.001 467 722 c 128
 467 750.001 456.833 773.835 436.5 793.5 c 128
 416.167 813.169 392 823.002 364 823 c 128
 336 823 312 813.167 292 793.5 c 128
 272 773.833 262 749.667 262 721 c 1
 57 721 l 1
 57 805.667 87.1667 878 147.5 938 c 128
 207.833 998 280.333 1028 365 1028 c 128
358 211 m 0
 415.333 211 449 239.667 459 297 c 0
 460.339 303.667 461.005 309 461 313 c 2
 461 432 l 1
 427 421.333 392.667 416 358 416 c 0
 329.333 415.999 305.166 405.666 285.5 385 c 128
 265.833 364.333 256 340.333 256 313 c 0
 256 309 256 309 256 302 c 128
 256 297.332 258 289.166 262 277.5 c 128
 266.001 265.833 271.167 255.5 277.5 246.5 c 128
 283.834 237.5 294.001 229.333 308 222 c 128
 322 214.666 338.667 211 358 211 c 0
EndSplineSet
EndChar

StartChar: eacute
Encoding: 233 233 128
Width: 749
GlyphClass: 2
Flags: HW
LayerCount: 2
Fore
SplineSet
375 1024 m 128
 459.667 1024 532 994 592 934 c 128
 652 874 682 801.667 682 717 c 2
 682 614 l 1
 682 410 l 1
 477 410 l 1
 272 410 l 1
 272 307 l 2
 272 278.333 282 254.167 302 234.5 c 128
 322 214.833 346.333 205 375 205 c 128
 403.667 205 427.833 214.833 447.5 234.5 c 128
 467.167 254.167 477 278.333 477 307 c 1
 682 307 l 1
 682 222.333 652 150 592 90 c 128
 532 30 459.667 0 375 0 c 128
 290.333 0 218 30 158 90 c 128
 98 150 68 222.333 68 307 c 2
 68 717 l 2
 68 801.667 98 874 158 934 c 128
 218 994 290.333 1024 375 1024 c 128
272 614 m 1
 477 614 l 1
 477 717 l 2
 476.999 745.668 467.166 769.835 447.5 789.5 c 128
 427.833 809.169 403.666 819.002 375 819 c 128
 346.333 819 322 809.167 302 789.5 c 128
 282 769.833 272 745.667 272 717 c 2
 272 614 l 1
EndSplineSet
Refer: 143 180 S 1 0 0 1 0 0 2
EndChar

StartChar: ecircumflex
Encoding: 234 234 129
Width: 749
GlyphClass: 2
Flags: HW
LayerCount: 2
Fore
SplineSet
374 1024 m 128
 458.667 1024 531 994 591 934 c 128
 651 874 681 801.667 681 717 c 2
 681 614 l 1
 681 410 l 1
 476 410 l 1
 271 410 l 1
 271 307 l 2
 271 278.333 281 254.167 301 234.5 c 128
 321 214.833 345.333 205 374 205 c 128
 402.667 205 426.833 214.833 446.5 234.5 c 128
 466.167 254.167 476 278.333 476 307 c 1
 681 307 l 1
 681 222.333 651 150 591 90 c 128
 531 30 458.667 0 374 0 c 128
 289.333 0 217 30 157 90 c 128
 97 150 67 222.333 67 307 c 2
 67 717 l 2
 67 801.667 97 874 157 934 c 128
 217 994 289.333 1024 374 1024 c 128
271 614 m 1
 476 614 l 1
 476 717 l 2
 475.999 745.668 466.166 769.835 446.5 789.5 c 128
 426.833 809.169 402.666 819.002 374 819 c 128
 345.333 819 321 809.167 301 789.5 c 128
 281 769.833 271 745.667 271 717 c 2
 271 614 l 1
EndSplineSet
Refer: 61 94 S 1 0 0 1 0 0 2
EndChar

StartChar: edieresis
Encoding: 235 235 130
Width: 749
GlyphClass: 2
Flags: HW
LayerCount: 2
Fore
SplineSet
375 1024 m 128
 459.667 1024 532 994 592 934 c 128
 652 874 682 801.667 682 717 c 2
 682 614 l 1
 682 410 l 1
 477 410 l 1
 272 410 l 1
 272 307 l 2
 272 278.333 282 254.167 302 234.5 c 128
 322 214.833 346.333 205 375 205 c 128
 403.667 205 427.833 214.833 447.5 234.5 c 128
 467.167 254.167 477 278.333 477 307 c 1
 682 307 l 1
 682 222.333 652 150 592 90 c 128
 532 30 459.667 0 375 0 c 128
 290.333 0 218 30 158 90 c 128
 98 150 68 222.333 68 307 c 2
 68 717 l 2
 68 801.667 98 874 158 934 c 128
 218 994 290.333 1024 375 1024 c 128
272 614 m 1
 477 614 l 1
 477 717 l 2
 476.999 745.668 467.166 769.835 447.5 789.5 c 128
 427.833 809.169 403.666 819.002 375 819 c 128
 346.333 819 322 809.167 302 789.5 c 128
 282 769.833 272 745.667 272 717 c 2
 272 614 l 1
EndSplineSet
Refer: 245 776 S 1 0 0 1 -19 0 2
EndChar

StartChar: igrave
Encoding: 236 236 131
Width: 391
GlyphClass: 2
Flags: HW
LayerCount: 2
Fore
SplineSet
101 1024 m 1
 306 1024 l 1
 306 0 l 1
 101 0 l 1
 101 1024 l 1
EndSplineSet
Refer: 62 96 S 1 0 0 1 -270 0 2
EndChar

StartChar: iacute
Encoding: 237 237 132
Width: 368
GlyphClass: 2
Flags: HW
LayerCount: 2
Fore
SplineSet
86 1024 m 1
 291 1024 l 1
 291 0 l 1
 86 0 l 1
 86 1024 l 1
EndSplineSet
Refer: 143 180 S 1 0 0 1 -140 0 2
EndChar

StartChar: icircumflex
Encoding: 238 238 133
Width: 401
GlyphClass: 2
Flags: HW
LayerCount: 2
Fore
SplineSet
104 1024 m 1
 309 1024 l 1
 309 0 l 1
 104 0 l 1
 104 1024 l 1
EndSplineSet
Refer: 61 94 S 1 0 0 1 -152 0 2
EndChar

StartChar: idieresis
Encoding: 239 239 134
Width: 443
GlyphClass: 2
Flags: HW
LayerCount: 2
Fore
SplineSet
110 1024 m 1
 315 1024 l 1
 315 0 l 1
 110 0 l 1
 110 1024 l 1
EndSplineSet
Refer: 245 776 S 1 0 0 1 -172 0 2
EndChar

StartChar: ograve
Encoding: 242 242 135
Width: 753
GlyphClass: 2
Flags: HW
LayerCount: 2
Fore
SplineSet
377 1020 m 0
 461.667 1020 534 990.667 594 932 c 128
 654 873.333 684.667 801.667 686 717 c 1
 686 305 l 2
 686 219 655.667 146 595 86 c 128
 534.333 26 461.667 -4 377 -4 c 256
 292.333 -4 220.333 25.3333 161 84 c 128
 101.667 142.667 70.6667 213.667 68 297 c 1
 68 305 l 1
 68 711 l 2
 68 797 98 870 158 930 c 128
 218 990 291 1020 377 1020 c 0
377 813 m 128
 348.333 813 324 803.167 304 783.5 c 128
 284 763.833 274 740.333 274 713 c 2
 274 305 l 2
 274 276.333 284 252.167 304 232.5 c 128
 324 212.833 348.333 203 377 203 c 0
 404.334 203 428.167 212.5 448.5 231.5 c 128
 468.834 250.5 479 273.667 479 301 c 2
 479 711 l 2
 478.999 739.668 469.166 763.835 449.5 783.5 c 128
 429.833 803.166 405.666 812.999 377 813 c 128
EndSplineSet
Refer: 62 96 S 1 0 0 1 0 0 2
EndChar

StartChar: oacute
Encoding: 243 243 136
Width: 753
GlyphClass: 2
Flags: HW
LayerCount: 2
Fore
SplineSet
377 1020 m 0
 461.667 1020 534 990.667 594 932 c 128
 654 873.333 684.667 801.667 686 717 c 1
 686 305 l 2
 686 219 655.667 146 595 86 c 128
 534.333 26 461.667 -4 377 -4 c 256
 292.333 -4 220.333 25.3333 161 84 c 128
 101.667 142.667 70.6667 213.667 68 297 c 1
 68 305 l 1
 68 711 l 2
 68 797 98 870 158 930 c 128
 218 990 291 1020 377 1020 c 0
377 813 m 128
 348.333 813 324 803.167 304 783.5 c 128
 284 763.833 274 740.333 274 713 c 2
 274 305 l 2
 274 276.333 284 252.167 304 232.5 c 128
 324 212.833 348.333 203 377 203 c 0
 404.334 203 428.167 212.5 448.5 231.5 c 128
 468.834 250.5 479 273.667 479 301 c 2
 479 711 l 2
 478.999 739.668 469.166 763.835 449.5 783.5 c 128
 429.833 803.166 405.666 812.999 377 813 c 128
EndSplineSet
Refer: 143 180 S 1 0 0 1 0 0 2
EndChar

StartChar: ocircumflex
Encoding: 244 244 137
Width: 753
GlyphClass: 2
Flags: HW
LayerCount: 2
Fore
SplineSet
377 1020 m 0
 461.667 1020 534 990.667 594 932 c 128
 654 873.333 684.667 801.667 686 717 c 1
 686 305 l 2
 686 219 655.667 146 595 86 c 128
 534.333 26 461.667 -4 377 -4 c 256
 292.333 -4 220.333 25.3333 161 84 c 128
 101.667 142.667 70.6667 213.667 68 297 c 1
 68 305 l 1
 68 711 l 2
 68 797 98 870 158 930 c 128
 218 990 291 1020 377 1020 c 0
377 813 m 128
 348.333 813 324 803.167 304 783.5 c 128
 284 763.833 274 740.333 274 713 c 2
 274 305 l 2
 274 276.333 284 252.167 304 232.5 c 128
 324 212.833 348.333 203 377 203 c 0
 404.334 203 428.167 212.5 448.5 231.5 c 128
 468.834 250.5 479 273.667 479 301 c 2
 479 711 l 2
 478.999 739.668 469.166 763.835 449.5 783.5 c 128
 429.833 803.166 405.666 812.999 377 813 c 128
EndSplineSet
Refer: 61 94 S 1 0 0 1 0 0 2
EndChar

StartChar: odieresis
Encoding: 246 246 138
Width: 770
GlyphClass: 2
Flags: HW
LayerCount: 2
Fore
SplineSet
393 1020 m 0
 477.667 1020 550 990.667 610 932 c 128
 670 873.333 700.667 801.667 702 717 c 1
 702 305 l 2
 702 219 671.667 146 611 86 c 128
 550.333 26 477.667 -4 393 -4 c 256
 308.333 -4 236.333 25.3333 177 84 c 128
 117.667 142.667 86.6667 213.667 84 297 c 1
 84 305 l 1
 84 711 l 2
 84 797 114 870 174 930 c 128
 234 990 307 1020 393 1020 c 0
393 813 m 128
 364.333 813 340 803.167 320 783.5 c 128
 300 763.833 290 740.333 290 713 c 2
 290 305 l 2
 290 276.333 300 252.167 320 232.5 c 128
 340 212.833 364.333 203 393 203 c 0
 420.334 203 444.167 212.5 464.5 231.5 c 128
 484.833 250.5 495 273.667 495 301 c 2
 495 711 l 2
 495 739.668 485.167 763.835 465.5 783.5 c 128
 445.833 803.166 421.666 812.999 393 813 c 128
EndSplineSet
Refer: 245 776 S 1 0 0 1 0 0 2
EndChar

StartChar: OE
Encoding: 338 338 141
Width: 1210
GlyphClass: 2
Flags: HW
LayerCount: 2
Fore
SplineSet
1174 0 m 1
 559 0 l 1
 559 78 l 1
 538.333 56 522.667 40.8333 512 32.5 c 128
 501.333 24.1667 485 16.6667 463 10 c 128
 441 3.33333 413.666 0 381 0 c 0
 297.667 -9.53674e-07 229.667 29.6667 177 89 c 128
 124.333 148.333 98 221 98 307 c 2
 98 1126 l 2
 98 1212 124.333 1284.83 177 1344.5 c 128
 229.667 1404.17 297.667 1434 381 1434 c 0
 449 1434 508.333 1408 559 1356 c 1
 559 1434 l 1
 1174 1434 l 1
 1174 1229 l 1
 764 1229 l 1
 764 819 l 1
 1071 819 l 1
 1071 614 l 1
 764 614 l 1
 764 205 l 1
 1174 205 l 1
 1174 0 l 1
405.5 1229 m 128
 376.5 1229 352.166 1219 332.5 1199 c 128
 312.833 1179 303 1154.67 303 1126 c 2
 303 838 l 1
 303 596 l 1
 303 307 l 2
 303 278.333 312.833 254.167 332.5 234.5 c 128
 352.167 214.833 376.5 205 405.5 205 c 128
 434.5 205 458.833 214.833 478.5 234.5 c 128
 498.167 254.167 508 278.333 508 307 c 2
 508 596 l 1
 508 838 l 1
 508 1126 l 2
 508 1154.67 498.166 1179 478.5 1199 c 128
 458.833 1219 434.5 1229 405.5 1229 c 128
EndSplineSet
EndChar

StartChar: oe
Encoding: 339 339 142
Width: 1157
GlyphClass: 2
Flags: HW
LayerCount: 2
Fore
SplineSet
784 1028 m 0
 868.667 1028 941.167 998 1001.5 938 c 128
 1061.84 878 1092 805.667 1092 721 c 2
 1092 618 l 1
 1092 414 l 1
 887 414 l 1
 682 414 l 1
 682 311 l 2
 682 307 682 307 682 303 c 0
 684.669 277 695.502 254.833 714.5 236.5 c 128
 733.5 218.167 756.667 209 784 209 c 0
 812.668 209 837.001 218.833 857 238.5 c 128
 877 258.167 887 282.333 887 311 c 1
 1092 311 l 1
 1092 226.333 1061.83 154 1001.5 94 c 128
 941.167 34 868.667 4 784 4 c 0
 706 4 638 30 580 82 c 1
 521.333 30 453 4 375 4 c 0
 291.667 4 220 33 160 91 c 128
 100 149 69.3333 219.667 68 303 c 1
 68 311 l 1
 68 715 l 2
 68 801 98 874.667 158 936 c 128
 218 997.333 290.333 1028 375 1028 c 0
 447.667 1028 515.333 1001.33 578 948 c 1
 636 1001.33 704.667 1028 784 1028 c 0
375 209 m 0
 402.333 209 425.833 218.167 445.5 236.5 c 128
 465.167 254.834 475.667 277.667 477 305 c 0
 477 309 477 309 477 311 c 2
 477 721 l 1
 477 721 477 721 477 723 c 0
 475.667 749 465.167 771.167 445.5 789.5 c 128
 425.833 807.833 402.333 817 375 817 c 256
 347.667 817 323.667 807.5 303 788.5 c 128
 282.333 769.5 272 745.667 272 717 c 2
 272 311 l 2
 272 282.333 282 258.167 302 238.5 c 128
 322 218.833 346.333 209 375 209 c 0
887 618 m 1
 887 721 l 2
 887 749.668 877 773.835 857 793.5 c 128
 837 813.169 812.667 823.002 784 823 c 0
 756.667 822.996 733.167 813.829 713.5 795.5 c 128
 693.833 777.165 683.333 754.332 682 727 c 0
 682 723 682 723 682 721 c 2
 682 618 l 1
 887 618 l 1
EndSplineSet
EndChar

StartChar: quoteright
Encoding: 8217 8217 145
Width: 376
Flags: HW
LayerCount: 2
Fore
SplineSet
85.4004 1562 m 1
 290.4 1562 l 1
 290.4 1357 l 1
 85.4004 1152 l 1
 85.4004 1562 l 1
EndSplineSet
EndChar

StartChar: quoteleft
Encoding: 8216 8216 146
Width: 376
Flags: HW
LayerCount: 2
Fore
SplineSet
290.4 1562 m 5
 85.4004 1562 l 5
 85.4004 1357 l 5
 290.4 1152 l 5
 290.4 1562 l 5
EndSplineSet
EndChar

StartChar: uni031B
Encoding: 795 795 147
Width: 0
Flags: HW
LayerCount: 2
Fore
SplineSet
-97.5996 1368.8 m 1
 107.4 1368.8 l 1
 107.4 1163.8 l 1
 -97.5996 958.8 l 1
 -97.5996 1368.8 l 1
EndSplineSet
EndChar

StartChar: hookabovecomb
Encoding: 777 777 148
Width: 0
Flags: HW
LayerCount: 2
Fore
SplineSet
45.5 1109 m 1
 147.5 1109 l 1
 45.5 1416 l 1
 -159.5 1416 l 1
 45.5 1109 l 1
EndSplineSet
EndChar

StartChar: dotbelowcomb
Encoding: 803 803 149
Width: 0
Flags: HW
LayerCount: 2
Fore
SplineSet
-113 -113.8 m 1
 92 -113.8 l 1
 92 -318.8 l 1
 -113 -318.8 l 1
 -113 -113.8 l 1
EndSplineSet
EndChar

StartChar: tildecomb
Encoding: 771 771 150
Width: 0
VWidth: 0
Flags: HW
LayerCount: 2
Fore
SplineSet
183.346 -84.9668 m 4
 161.65 -95.0098 136.042 -99.8701 106.436 -99.8701 c 4
 98.7334 -99.8701 90.7607 -99.5273 82.5205 -98.8398 c 132
 48.96 -96.0391 13.6299 -85.6904 -17.9697 -59.582 c 4
 -24.6504 -54.0625 -32.4512 -50.8398 -40.6074 -50.8398 c 4
 -45.4277 -50.8398 -50.8008 -51.916 -56.6406 -54.6641 c 132
 -64.3564 -58.2949 -74.293 -65.4736 -76.8682 -80.0957 c 5
 -230.357 -80 l 5
 -229.094 -46.7012 -219.505 -15.75 -201.426 13.3174 c 132
 -182.044 44.4785 -155.818 68.0117 -121.832 83.7529 c 4
 -95.2871 96.0479 -68.4629 101.79 -41.3076 101.79 c 4
 -32.9121 101.79 -24.4766 101.218 -15.9951 100.068 c 132
 20.0078 95.1904 51.6455 81.3672 79.4834 58.3662 c 4
 86.1641 52.8467 93.9668 49.625 102.122 49.625 c 4
 106.942 49.625 112.314 50.7021 118.154 53.4502 c 132
 125.869 57.0801 135.809 64.2598 138.383 78.8809 c 5
 291.846 78.7852 l 5
 290.364 45.6748 279.163 14.0264 257.841 -16.6592 c 132
 234.708 -49.9502 209.905 -72.6719 183.346 -84.9668 c 4
EndSplineSet
EndChar

StartChar: uni0308
Encoding: 776 776 245
Width: 770
Flags: HW
LayerCount: 2
Fore
SplineSet
82 1432 m 5
 284 1432 l 5
 284 1229 l 5
 82 1229 l 5
 82 1432 l 5
491 1432 m 5
 694 1432 l 5
 694 1229 l 5
 491 1229 l 5
 491 1432 l 5
EndSplineSet
EndChar
